<?xml version="1.0" encoding="utf-8"?>
<!-- Generator: Adobe Illustrator 27.4.0, SVG Export Plug-In . SVG Version: 6.00 Build 0)  -->
<svg version="1.1" id="Layer_1" xmlns="http://www.w3.org/2000/svg" xmlns:xlink="http://www.w3.org/1999/xlink" x="0px" y="0px"
	 viewBox="0 0 512 512" style="enable-background:new 0 0 512 512;" xml:space="preserve">
<style type="text/css">
	.st0{fill:#F7CB8D;}
</style>
<g>
	<path class="st0" d="M256,506C118.1,506,6,393.9,6,256C6,118.1,118.1,6,256,6c137.8,0,250,112.1,250,250
		C506,393.9,393.9,506,256,506z M256,42.8C138.5,42.8,42.8,138.5,42.8,256S138.5,469.2,256,469.2S469.2,373.6,469.2,256
		S373.6,42.8,256,42.8z"/>
	<path class="st0" d="M261.3,120.1c-75.3,0-136.3,61-136.3,136.3c0,75.2,61,136.3,136.3,136.3c24.8,0,47.8-7.1,67.9-18.8l-19.4-33.6
		c-14.3,8.3-30.7,13.4-48.5,13.4c-53.8,0-97.3-43.6-97.3-97.3c0-53.8,43.6-97.3,97.3-97.3c53.7,0,97.3,43.6,97.3,97.3
		c0,10.7-8.7,19.5-19.5,19.5s-19.5-8.7-19.5-19.5c0-32.2-26.2-58.4-58.4-58.4s-58.4,26.2-58.4,58.4c0,32.2,26.2,58.4,58.4,58.4
		c15,0,28.6-5.8,38.9-15.2c10.3,9.3,23.9,15.2,38.9,15.2c32.2,0,58.4-26.2,58.4-58.4C397.6,181.1,336.5,120.1,261.3,120.1z
		 M261.3,275.8c-10.7,0-19.5-8.7-19.5-19.5c0-10.7,8.7-19.5,19.5-19.5c10.7,0,19.5,8.7,19.5,19.5C280.8,267.1,272,275.8,261.3,275.8
		z"/>
</g>
</svg>
