<?xml version="1.0" encoding="utf-8"?>
<!-- Generator: Adobe Illustrator 27.4.0, SVG Export Plug-In . SVG Version: 6.00 Build 0)  -->
<svg version="1.1" id="Layer_1" xmlns="http://www.w3.org/2000/svg" xmlns:xlink="http://www.w3.org/1999/xlink" x="0px" y="0px"
	 viewBox="0 0 512 512" style="enable-background:new 0 0 512 512;" xml:space="preserve">
<style type="text/css">
	.st0{fill:#F7CB8D;}
</style>
<g>
	<path class="st0" d="M256,506C118.1,506,6,393.9,6,256C6,118.1,118.1,6,256,6c137.8,0,250,112.1,250,250
		C506,393.9,393.9,506,256,506z M256,42.8C138.5,42.8,42.8,138.5,42.8,256S138.5,469.2,256,469.2S469.2,373.6,469.2,256
		S373.6,42.8,256,42.8z"/>
	<g>
		<g>
			<path class="st0" d="M311.7,471.9h31.9V354.4h48.9V240.7c0-35-28.3-63.3-63.3-63.3H277v-27.7h52.4c5.5,0,9.9-4.4,9.9-9.9V108
				c0-5.5-4.4-9.9-9.9-9.9h-59c-5.5,0-9.9,4.4-9.9,9.9v41.6v27.7h-86.8c-35,0-63.3,28.3-63.3,63.3v113.7h201.3V471.9z M214,336.8
				h-87.2v-92.4c0-23.6,19.5-42.7,43.6-42.7s43.6,19.1,43.6,42.7V336.8z"/>
		</g>
	</g>
</g>
</svg>
