<?xml version="1.0" encoding="UTF-8"?>
<svg id="Layer_1" data-name="Layer 1" xmlns="http://www.w3.org/2000/svg" viewBox="0 0 512 512">
  <defs>
    <style>
      .cls-1 {
        fill: #f7cb8d;
      }
    </style>
  </defs>
  <path class="cls-1" d="m199.39,368.57h-52.39v-168.41h52.39v168.41Zm-26.18-191.42c-16.81,0-30.37-13.6-30.37-30.36s13.56-30.35,30.37-30.35,30.34,13.6,30.34,30.35-13.59,30.36-30.34,30.36Zm222.23,191.42h-52.34v-81.9c0-19.53-.34-44.65-27.2-44.65s-31.39,21.29-31.39,43.26v83.3h-52.28v-168.41h50.17v23.02h.72c6.98-13.24,24.06-27.2,49.52-27.2,53,0,62.79,34.87,62.79,80.23v92.36Z"/>
  <path class="cls-1" d="m256,506c-137.85,0-250-112.15-250-250S118.15,6,256,6s250,112.15,250,250-112.15,250-250,250Zm0-463.18c-117.55,0-213.18,95.64-213.18,213.18s95.64,213.18,213.18,213.18,213.18-95.63,213.18-213.18S373.55,42.82,256,42.82Z"/>
</svg>