<?xml version="1.0" encoding="UTF-8"?>
<svg id="Layer_1" data-name="Layer 1" xmlns="http://www.w3.org/2000/svg" viewBox="0 0 512 512">
  <defs>
    <style>
      .cls-1 {
        fill: #f7cb8d;
      }
    </style>
  </defs>
  <path class="cls-1" d="m256,506c-137.85,0-250-112.15-250-250S118.15,6,256,6s250,112.15,250,250-112.15,250-250,250Zm0-463.18c-117.55,0-213.18,95.63-213.18,213.18s95.63,213.18,213.18,213.18,213.18-95.63,213.18-213.18S373.55,42.82,256,42.82Z"/>
  <path class="cls-1" d="m322.68,160.76h-26.84c-21.05.01-25.12,10.01-25.12,24.69v32.37h50.2l-6.54,50.69h-43.66v130.08h-52.35v-130.08h-43.77v-50.69h43.77v-37.39c0-43.38,26.5-67.01,65.2-67.01,18.54,0,34.47,1.38,39.12,2v45.34Z"/>
</svg>