<?xml version="1.0" encoding="UTF-8"?>
<svg id="Layer_1" data-name="Layer 1" xmlns="http://www.w3.org/2000/svg" viewBox="0 0 512 512">
  <defs>
    <style>
      .cls-1 {
        fill: #f7cb8d;
      }
    </style>
  </defs>
  <path class="cls-1" d="m388.73,201.65c-.65-14.21-2.91-23.92-6.21-32.41-3.41-8.78-7.98-16.23-15.4-23.65-7.42-7.42-14.87-11.99-23.65-15.4-8.49-3.3-18.2-5.56-32.41-6.21-14.24-.65-18.79-.8-55.05-.8s-40.81.15-55.05.8c-14.21.65-23.92,2.91-32.41,6.21-8.78,3.41-16.23,7.98-23.65,15.4-7.42,7.43-11.99,14.87-15.4,23.65-3.3,8.49-5.56,18.2-6.21,32.41-.65,14.24-.8,18.79-.8,55.05s.15,40.81.8,55.05c.65,14.21,2.91,23.92,6.21,32.42,3.41,8.78,7.98,16.22,15.4,23.65,7.42,7.42,14.87,11.99,23.65,15.4,8.49,3.3,18.2,5.56,32.41,6.21,14.24.65,18.79.8,55.05.8s40.81-.15,55.05-.8c14.21-.65,23.92-2.91,32.41-6.21,8.78-3.41,16.23-7.98,23.65-15.4,7.43-7.43,11.99-14.87,15.4-23.65,3.3-8.5,5.56-18.2,6.21-32.42.65-14.24.8-18.79.8-55.05s-.15-40.81-.8-55.05Zm-132.73,123.62c-37.87,0-68.57-30.7-68.57-68.57s30.7-68.57,68.57-68.57,68.57,30.7,68.57,68.57-30.7,68.57-68.57,68.57Zm71.28-123.82c-8.85,0-16.02-7.17-16.02-16.02s7.18-16.02,16.02-16.02,16.02,7.17,16.02,16.02-7.17,16.02-16.02,16.02Z"/>
  <path class="cls-1" d="m256,506c-137.85,0-250-112.15-250-250S118.15,6,256,6s250,112.15,250,250-112.15,250-250,250Zm0-463.18c-117.55,0-213.18,95.64-213.18,213.18s95.63,213.18,213.18,213.18,213.18-95.63,213.18-213.18S373.55,42.82,256,42.82Z"/>
</svg>