<?xml version="1.0" encoding="UTF-8"?>
<svg id="Layer_1" data-name="Layer 1" xmlns="http://www.w3.org/2000/svg" viewBox="0 0 512 512">
  <defs>
    <style>
      .cls-1 {
        fill: #f7cb8d;
      }
    </style>
  </defs>
  <path class="cls-1" d="m256,506c-137.85,0-250-112.15-250-250S118.15,6,256,6s250,112.15,250,250-112.15,250-250,250Zm0-463.18c-117.55,0-213.18,95.63-213.18,213.18s95.63,213.18,213.18,213.18,213.18-95.63,213.18-213.18S373.55,42.82,256,42.82Z"/>
  <path class="cls-1" d="m394.51,199.49s-2.76-19.48-11.24-28.06c-10.75-11.26-22.8-11.31-28.32-11.97-39.55-2.86-98.89-2.86-98.89-2.86h-.12s-59.33,0-98.89,2.86c-5.53.66-17.57.71-28.32,11.97-8.47,8.58-11.23,28.06-11.23,28.06,0,0-2.83,22.87-2.83,45.75v21.44c0,22.87,2.83,45.75,2.83,45.75,0,0,2.76,19.48,11.23,28.06,10.75,11.26,24.88,10.9,31.17,12.08,22.61,2.17,96.1,2.84,96.1,2.84,0,0,59.39-.09,98.95-2.95,5.53-.66,17.57-.71,28.32-11.97,8.47-8.58,11.24-28.06,11.24-28.06,0,0,2.82-22.87,2.82-45.75v-21.44c0-22.87-2.82-45.75-2.82-45.75Zm-180.01,104.94l-.02-101.92,98.02,51.14-98,50.78Z"/>
</svg>