<svg xmlns="http://www.w3.org/2000/svg" xmlns:xlink="http://www.w3.org/1999/xlink" viewBox="0 0 543.23 132.53"><defs><style>.cls-1{fill:none;}.cls-2{fill:#fff;}.cls-3{fill:#4e2222;}.cls-4{clip-path:url(#clip-path);}.cls-5{fill:url(#linear-gradient);}.cls-6{fill:#e9dfd6;}</style><clipPath id="clip-path"><path class="cls-1" d="M69.89,58.06c-1.53.61-2.52,2.25-3.56,4a27.32,27.32,0,0,1-1.68,2.55l-3.93,5.14c-3.87,5.07-6.64,8.7-7,9.12a7,7,0,0,1-3.38,2.32l-.06,0a6.63,6.63,0,0,1-1.9.35,3.66,3.66,0,0,1-2.09-.65c-1.83-1.23-5.65-8.64-7.84-13.11H33.61a34.3,34.3,0,0,0,68.54.06l-.55,0c-1.57.13-3.53.29-5.06-.53a4.45,4.45,0,0,1-1-.77l-.17-.16a6.65,6.65,0,0,0-1-.22,8.47,8.47,0,0,1-1.74-.43,5.42,5.42,0,0,1-2.82-2.61,7.35,7.35,0,0,0-.56-.85c-.41-.5-.91-.79-2.17-.67-.43,0-.85.1-1.27.15a12.45,12.45,0,0,1-6.24-.34l-.33-.12a13.94,13.94,0,0,1-5.08-2.75,4,4,0,0,0-2.6-.85,4.57,4.57,0,0,0-1.69.32"/></clipPath><linearGradient id="linear-gradient" x1="-206.5" y1="216.86" x2="-205.91" y2="216.86" gradientTransform="matrix(0, -73.94, -73.94, 0, 16102.78, -15168)" gradientUnits="userSpaceOnUse"><stop offset="0" stop-color="#dac9b9"/><stop offset="0.3" stop-color="#dac9b9"/><stop offset="0.51" stop-color="#cfb197"/><stop offset="0.97" stop-color="#b37643"/><stop offset="1" stop-color="#b1713c"/></linearGradient></defs><title>Asset 2@4x-9</title><g id="Layer_2" data-name="Layer 2"><g id="Layer_1-2" data-name="Layer 1"><path class="cls-2" d="M67.88,32.18a34.34,34.34,0,0,1,34.2,31.76l-.8.06a8.28,8.28,0,0,1-2.86-.06,1.45,1.45,0,0,1-.18-.17A4.07,4.07,0,0,0,97,62.88,7.88,7.88,0,0,0,95,62.36a5.39,5.39,0,0,1-1-.21c-.38-.15-.48-.29-.89-1a11.54,11.54,0,0,0-.88-1.31,5.92,5.92,0,0,0-5.59-2.09c-.47,0-.93.1-1.38.16a9,9,0,0,1-4.4-.14l-.34-.12a10.53,10.53,0,0,1-3.79-2,8.38,8.38,0,0,0-8.38-1.28C65.69,55.54,64.25,57.92,63,60a21.88,21.88,0,0,1-1.41,2.16l-4,5.18C54.84,71,51,76,50.71,76.39a3.23,3.23,0,0,1-1.47,1l-.06,0a6.06,6.06,0,0,1-.7.18c-1-1-4.2-6.85-6.61-11.79l0,0a3.2,3.2,0,0,0-2.78-1.92H33.69A34.33,34.33,0,0,1,67.88,32.18"/><path class="cls-3" d="M184.05,28.25q4.19,7.92,8.74,16.27c.39-.74,1-1.82,1.71-3.22s1.62-3,2.61-4.83,2-3.77,3.16-5.88,2.27-4.26,3.44-6.43,2.32-4.3,3.46-6.39,2.21-4,3.2-5.86h.77q.65,5.68,1.21,11t1.16,10.42c.39,3.41.79,6.79,1.18,10.12s.83,6.64,1.3,9.92a8.33,8.33,0,0,0-1.39-.12h-2.78a8.24,8.24,0,0,0-1.39.12q-.66-7.87-1.3-15.28T207.53,23h-.12q-4.08,7.45-8,14.82T191.9,53.23h-.53q-3.56-7.47-7.43-14.95T176.15,23H176c-.27,2.44-.58,5.1-.91,8s-.65,5.68-.92,8.46-.51,5.41-.71,7.88-.3,4.49-.3,6.07a17.91,17.91,0,0,0-4.14,0c.51-3.2,1-6.57,1.6-10.13s1.08-7.12,1.59-10.71,1-7.13,1.43-10.63.8-6.82,1.12-10h1q4.08,8.4,8.25,16.34"/><path class="cls-3" d="M231.32,33.1a23.44,23.44,0,0,1,1.63-9,18.91,18.91,0,0,1,4.56-6.66,19.72,19.72,0,0,1,7-4.14,29,29,0,0,1,17.94,0,19.76,19.76,0,0,1,7,4.14A18.76,18.76,0,0,1,274,24.13a23.25,23.25,0,0,1,1.63,9,23.25,23.25,0,0,1-1.63,9,18.19,18.19,0,0,1-11.57,10.71,30.91,30.91,0,0,1-17.94,0,18.57,18.57,0,0,1-7-4.05A18.91,18.91,0,0,1,233,42.07a23.44,23.44,0,0,1-1.63-9m38.54,0a26,26,0,0,0-1.24-8.5,16.12,16.12,0,0,0-3.47-5.91,13.72,13.72,0,0,0-5.2-3.47,18.32,18.32,0,0,0-6.49-1.12A18.05,18.05,0,0,0,247,15.22a13.83,13.83,0,0,0-5.21,3.47,16.1,16.1,0,0,0-3.46,5.91,26,26,0,0,0-1.25,8.5,26,26,0,0,0,1.25,8.5,16.1,16.1,0,0,0,3.46,5.91A13.83,13.83,0,0,0,247,51a18.05,18.05,0,0,0,6.42,1.12A18.32,18.32,0,0,0,260,51a13.72,13.72,0,0,0,5.2-3.47,16.12,16.12,0,0,0,3.47-5.91,26,26,0,0,0,1.24-8.5"/><path class="cls-3" d="M324.79,31.91q0-8.4-.05-13a59.2,59.2,0,0,0-.3-6.27c.43.08.85.14,1.24.2a8,8,0,0,0,1.19.09,6.25,6.25,0,0,0,1.77-.29c-.12,1.38-.23,3-.35,4.94s-.22,4-.3,6.16-.16,4.44-.23,6.74-.14,4.55-.18,6.72a21.68,21.68,0,0,1-1.21,7.11,15.09,15.09,0,0,1-3.29,5.33A13.81,13.81,0,0,1,317.84,53a20.89,20.89,0,0,1-7.13,1.12q-8.88,0-12.91-4t-4-12.73c0-1.85,0-3.5.14-4.94s.15-2.91.15-4.41c0-3.31,0-6.26-.12-8.82s-.16-4.74-.23-6.51c.47.08,1,.14,1.54.2a14.17,14.17,0,0,0,1.53.09,9,9,0,0,0,1.28-.09c.41-.06.84-.12,1.27-.2-.08.86-.16,2-.24,3.4s-.15,3-.23,4.77-.14,3.69-.18,5.74-.06,4.18-.06,6.39q0,2,.06,4.17a30.18,30.18,0,0,0,.41,4.21,18,18,0,0,0,1.16,3.91,9.58,9.58,0,0,0,2.28,3.25,10.26,10.26,0,0,0,3.73,2.19,16.81,16.81,0,0,0,5.56.8,13.84,13.84,0,0,0,5.48-.95A10.52,10.52,0,0,0,321,48.08a11.44,11.44,0,0,0,2.22-3.56,20.36,20.36,0,0,0,1.15-4.2,32.45,32.45,0,0,0,.42-4.38c0-1.46.05-2.8.05-4"/><path class="cls-3" d="M368.84,38q-7.69-8.25-15.39-16.42-.06,1.65-.12,4.44c0,1.85-.06,4.38-.06,7.57,0,.83,0,1.86,0,3.08s0,2.51.06,3.85.05,2.7.09,4.09.08,2.66.12,3.84.07,2.22.12,3.11.07,1.49.11,1.81a16.5,16.5,0,0,0-2.07-.12,18.54,18.54,0,0,0-2.19.12q.12-.6.27-2.19c.09-1.07.18-2.34.26-3.82s.17-3.09.27-4.83.18-3.47.24-5.21.1-3.43.14-5.09.06-3.13.06-4.44c0-3.79,0-7,0-9.77s-.07-4.75-.15-6.09h.95l7.73,8.37q4.11,4.47,8.17,8.82t7.69,8.23q3.64,3.89,6.37,6.6v-8q0-6.21-.09-12.1T381,12.68a8.88,8.88,0,0,0,2,.29,8.62,8.62,0,0,0,1.89-.29c-.08.86-.17,2.17-.26,3.91s-.21,3.59-.3,5.56-.19,3.91-.27,5.8-.12,3.41-.12,4.56v3.55q0,2,0,4.2t.06,4.41c0,1.48,0,2.86.06,4.15s0,2.39,0,3.34v2h-.83q-6.81-7.86-14.5-16.13"/><path class="cls-3" d="M414.12,15.76l-3.22,0c-1.13,0-2.25.05-3.38.11s-2.21.13-3.25.21-2,.18-2.81.29a7.38,7.38,0,0,0,.29-1.89,8.53,8.53,0,0,0-.29-1.83c2.6.08,5.15.14,7.63.2s5,.09,7.64.09,5.15,0,7.64-.09,5-.12,7.63-.2a8,8,0,0,0-.29,1.89A6.74,6.74,0,0,0,432,16.4c-.83-.11-1.76-.21-2.81-.29s-2.13-.15-3.26-.21-2.24-.09-3.37-.11l-3.23,0q-.18,6.09-.17,12.25V38.19c0,2.61,0,5.17.14,7.7s.21,5,.33,7.46c-.91-.08-1.87-.12-2.9-.12s-2,0-2.9.12q.18-3.68.32-7.46c.1-2.53.15-5.09.15-7.7V28q0-6.15-.18-12.25"/><path class="cls-3" d="M184.05,96.15q4.19,7.93,8.74,16.28c.39-.75,1-1.83,1.71-3.23s1.62-3,2.61-4.82,2-3.78,3.16-5.89,2.27-4.26,3.44-6.43,2.32-4.3,3.46-6.39,2.21-4,3.2-5.86h.77q.65,5.68,1.21,11c.37,3.53.76,7,1.16,10.42s.79,6.79,1.18,10.12.83,6.64,1.3,9.92a8.33,8.33,0,0,0-1.39-.12h-2.78a8.24,8.24,0,0,0-1.39.12q-.66-7.87-1.3-15.27t-1.6-15.1h-.12q-4.08,7.45-8,14.83t-7.49,15.42h-.53q-3.56-7.45-7.43-14.95t-7.79-15.3H176c-.27,2.45-.58,5.1-.91,8s-.65,5.68-.92,8.47-.51,5.41-.71,7.87-.3,4.49-.3,6.07a17.91,17.91,0,0,0-4.14,0c.51-3.2,1-6.57,1.6-10.13s1.08-7.12,1.59-10.71,1-7.13,1.43-10.62.8-6.82,1.12-10h1q4.08,8.41,8.25,16.34"/><path class="cls-3" d="M267.31,121.25a10.86,10.86,0,0,0-1.56-.12h-3.14a10.89,10.89,0,0,0-1.57.12c-.28-.91-.65-2-1.13-3.29s-1-2.62-1.56-4-1.16-2.82-1.75-4.26-1.14-2.82-1.66-4.12q-1.89-.06-3.84-.09l-3.91,0c-1.22,0-2.43,0-3.61,0l-3.61.09q-1.91,4.62-3.44,8.79t-2.31,6.9a20,20,0,0,0-4.38,0q4.8-10.36,9.36-20.6t9.17-20.84h1.13q1.41,3.43,3.08,7.43c1.1,2.66,2.22,5.36,3.37,8.08s2.29,5.43,3.43,8.11,2.22,5.18,3.23,7.49,1.91,4.37,2.72,6.19,1.47,3.19,2,4.14m-26.22-18.41c1,0,2.09,0,3.2.06s2.17.06,3.2.06,2.21,0,3.31,0,2.21-.05,3.31-.09l-6.57-15Z"/><path class="cls-3" d="M284.13,95.91c0-2.6-.05-5.16-.15-7.66s-.21-5.06-.33-7.67l4.47.21q2.22.09,4.47.09t4.47-.15q2.22-.15,4.47-.15a25.85,25.85,0,0,1,8.91,1.36,15.53,15.53,0,0,1,6.07,3.88A15.33,15.33,0,0,1,320,92a28.33,28.33,0,0,1,1.1,8.19,21.91,21.91,0,0,1-2.05,10,19,19,0,0,1-5.21,6.54,19.34,19.34,0,0,1-7,3.52,27.9,27.9,0,0,1-7.31,1c-1.34,0-2.66,0-4-.06s-2.62-.06-4-.06h-4c-1.3,0-2.63,0-4,.12q.18-3.68.33-7.46t.15-7.69ZM289,106.1q0,6.39.36,12.54a21.43,21.43,0,0,0,3.37.45q2.13.15,4.38.15a28.38,28.38,0,0,0,6.51-.77,14.17,14.17,0,0,0,5.83-2.9,15.61,15.61,0,0,0,4.21-5.84,24,24,0,0,0,1.63-9.56A23.84,23.84,0,0,0,314,91.71a12.87,12.87,0,0,0-3.49-5.24,12.36,12.36,0,0,0-5.3-2.66,28.49,28.49,0,0,0-6.75-.74c-1.77,0-3.43.05-5,.17s-2.92.26-4.14.42q-.18,2.84-.27,6t-.09,6.3Z"/><path class="cls-3" d="M336.87,101a23.25,23.25,0,0,1,1.63-9,18.78,18.78,0,0,1,4.56-6.65,19.6,19.6,0,0,1,7-4.15,29,29,0,0,1,17.94,0,19.6,19.6,0,0,1,7,4.15A18.52,18.52,0,0,1,379.58,92a25.5,25.5,0,0,1,0,17.94A18.3,18.3,0,0,1,368,120.69a30.91,30.91,0,0,1-17.94,0A18.3,18.3,0,0,1,338.5,110a23.18,23.18,0,0,1-1.63-9m38.54,0a25.94,25.94,0,0,0-1.24-8.49,16.29,16.29,0,0,0-3.46-5.92,14,14,0,0,0-5.21-3.47A18.55,18.55,0,0,0,359,82a18.28,18.28,0,0,0-6.42,1.12,14,14,0,0,0-5.21,3.47,16.15,16.15,0,0,0-3.46,5.92,25.93,25.93,0,0,0-1.25,8.49,26,26,0,0,0,1.25,8.5,16.15,16.15,0,0,0,3.46,5.92,13.81,13.81,0,0,0,5.21,3.46A18.05,18.05,0,0,0,359,120a18.32,18.32,0,0,0,6.49-1.12,13.88,13.88,0,0,0,5.21-3.46,16.29,16.29,0,0,0,3.46-5.92,26,26,0,0,0,1.24-8.5"/><path class="cls-3" d="M418.33,105.89q-7.69-8.26-15.39-16.43-.06,1.65-.12,4.44t-.06,7.58c0,.83,0,1.85,0,3.07s0,2.51.06,3.85,0,2.71.09,4.09.07,2.66.12,3.84.07,2.22.11,3.11.08,1.49.12,1.81a16.5,16.5,0,0,0-2.07-.12,18.54,18.54,0,0,0-2.19.12c.08-.4.17-1.13.26-2.19s.19-2.34.27-3.82.17-3.09.27-4.83.18-3.47.24-5.21.1-3.43.14-5.09.06-3.13.06-4.43q0-5.69,0-9.77c0-2.72-.07-4.76-.15-6.1h1q3.61,3.9,7.73,8.38c2.74,3,5.46,5.91,8.17,8.82s5.26,5.64,7.69,8.22,4.55,4.79,6.36,6.6v-8q0-6.23-.08-12.11t-.39-11.1a8.43,8.43,0,0,0,2,.3,8.15,8.15,0,0,0,1.9-.3c-.08.87-.17,2.17-.27,3.91s-.2,3.59-.29,5.56-.19,3.91-.27,5.8-.12,3.42-.12,4.56V104c0,1.35,0,2.75,0,4.21s0,2.93.06,4.41,0,2.86.06,4.14,0,2.4,0,3.34v2h-.83q-6.81-7.87-14.5-16.13"/><path class="cls-3" d="M474.39,105.89Q466.7,97.63,459,89.46c0,1.1-.07,2.58-.11,4.44s-.06,4.38-.06,7.58c0,.83,0,1.85,0,3.07s0,2.51.06,3.85,0,2.71.08,4.09.09,2.66.12,3.84.08,2.22.12,3.11.08,1.49.12,1.81a16.5,16.5,0,0,0-2.07-.12,18.54,18.54,0,0,0-2.19.12q.12-.6.27-2.19c.09-1.07.18-2.34.26-3.82s.17-3.09.27-4.83.18-3.47.23-5.21.11-3.43.15-5.09.06-3.13.06-4.43q0-5.69,0-9.77c0-2.72-.07-4.76-.14-6.1h.94q3.61,3.9,7.73,8.38c2.74,3,5.46,5.91,8.16,8.82l7.7,8.22q3.65,3.88,6.37,6.6v-8q0-6.23-.09-12.11t-.39-11.1a8.43,8.43,0,0,0,2,.3,8.15,8.15,0,0,0,1.9-.3c-.08.87-.17,2.17-.27,3.91s-.2,3.59-.29,5.56-.19,3.91-.27,5.8-.12,3.42-.12,4.56V104c0,1.35,0,2.75,0,4.21s0,2.93.06,4.41,0,2.86.06,4.14,0,2.4,0,3.34v2h-.83q-6.81-7.87-14.5-16.13"/><path class="cls-3" d="M543.23,121.25a10.86,10.86,0,0,0-1.56-.12h-3.14a10.89,10.89,0,0,0-1.57.12c-.28-.91-.65-2-1.13-3.29s-1-2.62-1.56-4-1.16-2.82-1.75-4.26-1.15-2.82-1.66-4.12c-1.26,0-2.54-.07-3.85-.09s-2.6,0-3.9,0-2.43,0-3.62,0l-3.61.09q-1.89,4.62-3.43,8.79t-2.31,6.9a20,20,0,0,0-4.38,0q4.8-10.36,9.35-20.6t9.18-20.84h1.12l3.08,7.43c1.11,2.66,2.23,5.36,3.38,8.08s2.29,5.43,3.43,8.11,2.22,5.18,3.23,7.49,1.91,4.37,2.72,6.19,1.47,3.19,2,4.14M517,102.84c1,0,2.09,0,3.19.06s2.17.06,3.2.06,2.21,0,3.32,0,2.21-.05,3.31-.09l-6.57-15Z"/><path class="cls-3" d="M133.84,31.33H121.16a1.33,1.33,0,0,0-1.33,1.33V43a.38.38,0,0,1-.38.39h-4a.38.38,0,0,1-.38-.39V21.42a1.34,1.34,0,0,0-1.33-1.33H92.22a.38.38,0,0,1-.39-.39V13.08a.39.39,0,0,1,.39-.39h10.29a1.32,1.32,0,0,0,1.33-1.32v-10A1.32,1.32,0,0,0,102.51,0H32.66a1.32,1.32,0,0,0-1.33,1.33v10a1.32,1.32,0,0,0,1.33,1.32H43a.39.39,0,0,1,.38.39V19.7a.38.38,0,0,1-.38.39H21.42a1.34,1.34,0,0,0-1.33,1.33V43a.38.38,0,0,1-.38.39h-4a.38.38,0,0,1-.39-.39V32.66A1.32,1.32,0,0,0,14,31.33H1.33A1.32,1.32,0,0,0,0,32.66V99.87a1.33,1.33,0,0,0,1.33,1.33H14a1.33,1.33,0,0,0,1.33-1.33V89.57a.38.38,0,0,1,.39-.38h4a.38.38,0,0,1,.38.38V111.1a1.33,1.33,0,0,0,1.33,1.33H43a.38.38,0,0,1,.38.39v6.62a.38.38,0,0,1-.38.39H32.66a1.32,1.32,0,0,0-1.33,1.33v10a1.33,1.33,0,0,0,1.33,1.33h69.85a1.33,1.33,0,0,0,1.33-1.33v-10a1.32,1.32,0,0,0-1.33-1.33H92.22a.38.38,0,0,1-.39-.39v-6.62a.38.38,0,0,1,.39-.39h21.53a1.33,1.33,0,0,0,1.33-1.33V89.57a.38.38,0,0,1,.38-.38h4a.38.38,0,0,1,.38.38v10.3a1.34,1.34,0,0,0,1.33,1.33h12.68a1.33,1.33,0,0,0,1.33-1.33V32.66a1.32,1.32,0,0,0-1.33-1.33m-3.19,67.6a.4.4,0,0,1-.39.39h-5.52a.39.39,0,0,1-.38-.39V88.63A1.34,1.34,0,0,0,123,87.3H111.88a1.34,1.34,0,0,0-1.33,1.33v21.53a.38.38,0,0,1-.38.39H88.63a1.33,1.33,0,0,0-1.33,1.33v8.5a1.33,1.33,0,0,0,1.33,1.33h10.3a.4.4,0,0,1,.39.39v8.16a.39.39,0,0,1-.39.38H36.24a.38.38,0,0,1-.38-.38V122.1a.39.39,0,0,1,.38-.39h10.3a1.33,1.33,0,0,0,1.33-1.33v-8.5a1.33,1.33,0,0,0-1.33-1.33H25a.38.38,0,0,1-.39-.39V88.63a1.34,1.34,0,0,0-1.33-1.33H12.14a1.34,1.34,0,0,0-1.33,1.33v10.3a.39.39,0,0,1-.38.39H4.91a.39.39,0,0,1-.38-.39V33.6a.38.38,0,0,1,.38-.39h5.52a.38.38,0,0,1,.38.39V43.89a1.33,1.33,0,0,0,1.33,1.33H23.29a1.33,1.33,0,0,0,1.33-1.33V22.36A.39.39,0,0,1,25,22H46.54a1.33,1.33,0,0,0,1.33-1.32V12.14a1.34,1.34,0,0,0-1.33-1.33H36.24a.38.38,0,0,1-.38-.38V2.27a.39.39,0,0,1,.38-.39H98.93a.4.4,0,0,1,.39.39v8.16a.39.39,0,0,1-.39.38H88.63a1.34,1.34,0,0,0-1.33,1.33v8.51A1.33,1.33,0,0,0,88.63,22h21.54a.39.39,0,0,1,.38.39V43.89a1.33,1.33,0,0,0,1.33,1.33H123a1.33,1.33,0,0,0,1.33-1.33V33.6a.38.38,0,0,1,.38-.39h5.52a.39.39,0,0,1,.39.39V98.93Z"/><path class="cls-3" d="M67.88,28.27a38.21,38.21,0,1,0,38.21,38.21A38.24,38.24,0,0,0,67.88,28.27m0,3.91a34.34,34.34,0,0,1,34.2,31.76l-.8.06a8.28,8.28,0,0,1-2.86-.06,1.45,1.45,0,0,1-.18-.17A4.07,4.07,0,0,0,97,62.88,7.88,7.88,0,0,0,95,62.36a5.39,5.39,0,0,1-1-.21c-.38-.15-.48-.29-.89-1a11.54,11.54,0,0,0-.88-1.31,5.92,5.92,0,0,0-5.59-2.09c-.47,0-.93.1-1.38.16a9,9,0,0,1-4.4-.14l-.34-.12a10.53,10.53,0,0,1-3.79-2,8.38,8.38,0,0,0-8.38-1.28C65.69,55.54,64.25,57.92,63,60a21.88,21.88,0,0,1-1.41,2.16l-4,5.18C54.84,71,51,76,50.71,76.39a3.23,3.23,0,0,1-1.47,1l-.06,0a6.06,6.06,0,0,1-.7.18c-1-1-4.2-6.85-6.61-11.79l0,0a3.2,3.2,0,0,0-2.78-1.92H33.69A34.33,34.33,0,0,1,67.88,32.18m0,68.6a34.34,34.34,0,0,1-34.27-33h4.86c2.19,4.47,6,11.88,7.84,13.11a3.66,3.66,0,0,0,2.09.65,6.63,6.63,0,0,0,1.9-.35l.06,0a7,7,0,0,0,3.38-2.32c.34-.42,3.11-4,7-9.12l3.93-5.14A27.32,27.32,0,0,0,66.33,62c1-1.73,2-3.37,3.56-4a4.46,4.46,0,0,1,4.29.53,13.94,13.94,0,0,0,5.08,2.75l.33.12a12.45,12.45,0,0,0,6.24.34c.42,0,.84-.11,1.27-.15,1.26-.12,1.76.17,2.17.67a7.35,7.35,0,0,1,.56.85,5.42,5.42,0,0,0,2.82,2.61,8.47,8.47,0,0,0,1.74.43,6.65,6.65,0,0,1,1,.22l.17.16a4.18,4.18,0,0,0,1,.77c1.53.82,3.49.66,5.06.53l.55,0a34.34,34.34,0,0,1-34.27,32.94"/><path class="cls-3" d="M80.41,42.37a4.36,4.36,0,0,0,6.72,5.27.86.86,0,0,1,1.3,1.07c-3,4.95-10.69,2.72-11-2.93a5.39,5.39,0,0,1,1.67-4.42.86.86,0,0,1,1.35,1"/><g class="cls-4"><rect class="cls-5" x="33.61" y="57.74" width="68.53" height="43.03"/></g><path class="cls-6" d="M130.65,98.93a.39.39,0,0,1-.39.38h-5.52a.38.38,0,0,1-.38-.38V88.63A1.34,1.34,0,0,0,123,87.3H111.88a1.34,1.34,0,0,0-1.33,1.33v21.53a.38.38,0,0,1-.38.39H88.63a1.33,1.33,0,0,0-1.33,1.33v8.5a1.33,1.33,0,0,0,1.33,1.33h10.3a.4.4,0,0,1,.39.39v8.16a.39.39,0,0,1-.39.38H36.24a.38.38,0,0,1-.38-.38V122.1a.39.39,0,0,1,.38-.39h10.3a1.33,1.33,0,0,0,1.33-1.33v-8.5a1.33,1.33,0,0,0-1.33-1.33H25a.38.38,0,0,1-.39-.39V88.63a1.34,1.34,0,0,0-1.33-1.33H12.14a1.34,1.34,0,0,0-1.33,1.33v10.3a.38.38,0,0,1-.38.38H4.91a.38.38,0,0,1-.38-.38V33.6a.38.38,0,0,1,.38-.39h5.52a.38.38,0,0,1,.38.39V43.89a1.33,1.33,0,0,0,1.33,1.33H23.29a1.33,1.33,0,0,0,1.33-1.33V22.36A.39.39,0,0,1,25,22H46.54a1.33,1.33,0,0,0,1.33-1.32V12.14a1.34,1.34,0,0,0-1.33-1.33H36.24a.38.38,0,0,1-.38-.38V2.27a.39.39,0,0,1,.38-.39H98.93a.4.4,0,0,1,.39.39v8.16a.39.39,0,0,1-.39.38H88.63a1.34,1.34,0,0,0-1.33,1.33v8.51A1.33,1.33,0,0,0,88.63,22h21.54a.39.39,0,0,1,.38.39V43.89a1.33,1.33,0,0,0,1.33,1.33H123a1.33,1.33,0,0,0,1.33-1.33V33.6a.38.38,0,0,1,.38-.39h5.52a.39.39,0,0,1,.39.39V98.93ZM67.88,28.27a38.21,38.21,0,1,0,38.21,38.21A38.24,38.24,0,0,0,67.88,28.27"/></g></g></svg>