<svg xmlns="http://www.w3.org/2000/svg" xmlns:xlink="http://www.w3.org/1999/xlink" viewBox="0 0 135.17 132.53"><defs><style>.cls-1{fill:none;}.cls-2{fill:#fff;}.cls-3{fill:#4e2222;}.cls-4{clip-path:url(#clip-path);}.cls-5{fill:url(#linear-gradient);}.cls-6{fill:#e9dfd6;}</style><clipPath id="clip-path"><path class="cls-1" d="M69.89,58.06c-1.53.61-2.52,2.25-3.56,4a27.32,27.32,0,0,1-1.68,2.55l-3.93,5.14c-3.87,5.07-6.64,8.7-7,9.12a7,7,0,0,1-3.38,2.32l-.06,0a6.63,6.63,0,0,1-1.9.35,3.66,3.66,0,0,1-2.09-.65c-1.83-1.23-5.65-8.64-7.84-13.11H33.61a34.3,34.3,0,0,0,68.54.06l-.55,0c-1.57.13-3.53.29-5.06-.53a4.45,4.45,0,0,1-1-.77l-.17-.16a6.65,6.65,0,0,0-1-.22,8.47,8.47,0,0,1-1.74-.43,5.42,5.42,0,0,1-2.82-2.61,7.35,7.35,0,0,0-.56-.85c-.41-.5-.91-.79-2.17-.67-.43,0-.85.1-1.27.15a12.45,12.45,0,0,1-6.24-.34l-.33-.12a13.94,13.94,0,0,1-5.08-2.75,4,4,0,0,0-2.6-.85,4.57,4.57,0,0,0-1.69.32"/></clipPath><linearGradient id="linear-gradient" x1="-206.5" y1="216.86" x2="-205.91" y2="216.86" gradientTransform="matrix(0, -73.94, -73.94, 0, 16102.78, -15168)" gradientUnits="userSpaceOnUse"><stop offset="0" stop-color="#dac9b9"/><stop offset="0.3" stop-color="#dac9b9"/><stop offset="0.51" stop-color="#cfb197"/><stop offset="0.97" stop-color="#b37643"/><stop offset="1" stop-color="#b1713c"/></linearGradient></defs><title>Asset 3@4x-9</title><g id="Layer_2" data-name="Layer 2"><g id="Layer_1-2" data-name="Layer 1"><path class="cls-2" d="M67.88,32.18a34.34,34.34,0,0,1,34.2,31.76l-.8.06a8.28,8.28,0,0,1-2.86-.06,1.45,1.45,0,0,1-.18-.17A4.07,4.07,0,0,0,97,62.88,7.88,7.88,0,0,0,95,62.36a5.39,5.39,0,0,1-1-.21c-.38-.15-.48-.29-.89-1a11.54,11.54,0,0,0-.88-1.31,5.92,5.92,0,0,0-5.59-2.09c-.47,0-.93.1-1.38.16a9,9,0,0,1-4.4-.14l-.34-.12a10.53,10.53,0,0,1-3.79-2,8.38,8.38,0,0,0-8.38-1.28C65.69,55.54,64.25,57.92,63,60a21.88,21.88,0,0,1-1.41,2.16l-4,5.18C54.84,71,51,76,50.71,76.39a3.23,3.23,0,0,1-1.47,1l-.06,0a6.06,6.06,0,0,1-.7.18c-1-1-4.2-6.85-6.61-11.79l0,0a3.2,3.2,0,0,0-2.78-1.92H33.69A34.33,34.33,0,0,1,67.88,32.18"/><path class="cls-3" d="M133.84,31.33H121.16a1.33,1.33,0,0,0-1.33,1.33V43a.38.38,0,0,1-.38.39h-4a.38.38,0,0,1-.38-.39V21.42a1.34,1.34,0,0,0-1.33-1.33H92.22a.38.38,0,0,1-.39-.39V13.08a.39.39,0,0,1,.39-.39h10.29a1.32,1.32,0,0,0,1.33-1.32v-10A1.32,1.32,0,0,0,102.51,0H32.66a1.32,1.32,0,0,0-1.33,1.33v10a1.32,1.32,0,0,0,1.33,1.32H43a.39.39,0,0,1,.38.39V19.7a.38.38,0,0,1-.38.39H21.42a1.34,1.34,0,0,0-1.33,1.33V43a.38.38,0,0,1-.38.39h-4a.38.38,0,0,1-.39-.39V32.66A1.32,1.32,0,0,0,14,31.33H1.33A1.32,1.32,0,0,0,0,32.66V99.87a1.33,1.33,0,0,0,1.33,1.33H14a1.33,1.33,0,0,0,1.33-1.33V89.57a.38.38,0,0,1,.39-.38h4a.38.38,0,0,1,.38.38V111.1a1.33,1.33,0,0,0,1.33,1.33H43a.38.38,0,0,1,.38.39v6.62a.38.38,0,0,1-.38.39H32.66a1.32,1.32,0,0,0-1.33,1.33v10a1.33,1.33,0,0,0,1.33,1.33h69.85a1.33,1.33,0,0,0,1.33-1.33v-10a1.32,1.32,0,0,0-1.33-1.33H92.22a.38.38,0,0,1-.39-.39v-6.62a.38.38,0,0,1,.39-.39h21.53a1.33,1.33,0,0,0,1.33-1.33V89.57a.38.38,0,0,1,.38-.38h4a.38.38,0,0,1,.38.38v10.3a1.34,1.34,0,0,0,1.33,1.33h12.68a1.33,1.33,0,0,0,1.33-1.33V32.66a1.32,1.32,0,0,0-1.33-1.33m-3.19,67.6a.4.4,0,0,1-.39.39h-5.52a.39.39,0,0,1-.38-.39V88.63A1.34,1.34,0,0,0,123,87.3H111.88a1.34,1.34,0,0,0-1.33,1.33v21.53a.38.38,0,0,1-.38.39H88.63a1.33,1.33,0,0,0-1.33,1.33v8.5a1.33,1.33,0,0,0,1.33,1.33h10.3a.4.4,0,0,1,.39.39v8.16a.39.39,0,0,1-.39.38H36.24a.38.38,0,0,1-.38-.38V122.1a.39.39,0,0,1,.38-.39h10.3a1.33,1.33,0,0,0,1.33-1.33v-8.5a1.33,1.33,0,0,0-1.33-1.33H25a.38.38,0,0,1-.39-.39V88.63a1.34,1.34,0,0,0-1.33-1.33H12.14a1.34,1.34,0,0,0-1.33,1.33v10.3a.39.39,0,0,1-.38.39H4.91a.39.39,0,0,1-.38-.39V33.6a.38.38,0,0,1,.38-.39h5.52a.38.38,0,0,1,.38.39V43.89a1.33,1.33,0,0,0,1.33,1.33H23.29a1.33,1.33,0,0,0,1.33-1.33V22.36A.39.39,0,0,1,25,22H46.54a1.33,1.33,0,0,0,1.33-1.32V12.14a1.34,1.34,0,0,0-1.33-1.33H36.24a.38.38,0,0,1-.38-.38V2.27a.39.39,0,0,1,.38-.39H98.93a.4.4,0,0,1,.39.39v8.16a.39.39,0,0,1-.39.38H88.63a1.34,1.34,0,0,0-1.33,1.33v8.51A1.33,1.33,0,0,0,88.63,22h21.54a.39.39,0,0,1,.38.39V43.89a1.33,1.33,0,0,0,1.33,1.33H123a1.33,1.33,0,0,0,1.33-1.33V33.6a.38.38,0,0,1,.38-.39h5.52a.39.39,0,0,1,.39.39V98.93Z"/><path class="cls-3" d="M67.88,28.27a38.21,38.21,0,1,0,38.21,38.21A38.24,38.24,0,0,0,67.88,28.27m0,3.91a34.34,34.34,0,0,1,34.2,31.76l-.8.06a8.28,8.28,0,0,1-2.86-.06,1.45,1.45,0,0,1-.18-.17A4.07,4.07,0,0,0,97,62.88,7.88,7.88,0,0,0,95,62.36a5.39,5.39,0,0,1-1-.21c-.38-.15-.48-.29-.89-1a11.54,11.54,0,0,0-.88-1.31,5.92,5.92,0,0,0-5.59-2.09c-.47,0-.93.1-1.38.16a9,9,0,0,1-4.4-.14l-.34-.12a10.53,10.53,0,0,1-3.79-2,8.38,8.38,0,0,0-8.38-1.28C65.69,55.54,64.25,57.92,63,60a21.88,21.88,0,0,1-1.41,2.16l-4,5.18C54.84,71,51,76,50.71,76.39a3.23,3.23,0,0,1-1.47,1l-.06,0a6.06,6.06,0,0,1-.7.18c-1-1-4.2-6.85-6.61-11.79l0,0a3.2,3.2,0,0,0-2.78-1.92H33.69A34.33,34.33,0,0,1,67.88,32.18m0,68.6a34.34,34.34,0,0,1-34.27-33h4.86c2.19,4.47,6,11.88,7.84,13.11a3.66,3.66,0,0,0,2.09.65,6.63,6.63,0,0,0,1.9-.35l.06,0a7,7,0,0,0,3.38-2.32c.34-.42,3.11-4,7-9.12l3.93-5.14A27.32,27.32,0,0,0,66.33,62c1-1.73,2-3.37,3.56-4a4.46,4.46,0,0,1,4.29.53,13.94,13.94,0,0,0,5.08,2.75l.33.12a12.45,12.45,0,0,0,6.24.34c.42,0,.84-.11,1.27-.15,1.26-.12,1.76.17,2.17.67a7.35,7.35,0,0,1,.56.85,5.42,5.42,0,0,0,2.82,2.61,8.47,8.47,0,0,0,1.74.43,6.65,6.65,0,0,1,1,.22l.17.16a4.18,4.18,0,0,0,1,.77c1.53.82,3.49.66,5.06.53l.55,0a34.34,34.34,0,0,1-34.27,32.94"/><path class="cls-3" d="M80.41,42.37a4.36,4.36,0,0,0,6.72,5.27.86.86,0,0,1,1.3,1.07c-3,4.95-10.69,2.72-11-2.93a5.39,5.39,0,0,1,1.67-4.42.86.86,0,0,1,1.35,1"/><g class="cls-4"><rect class="cls-5" x="33.61" y="57.74" width="68.53" height="43.03"/></g><path class="cls-6" d="M130.65,98.93a.39.39,0,0,1-.39.38h-5.52a.38.38,0,0,1-.38-.38V88.63A1.34,1.34,0,0,0,123,87.3H111.88a1.34,1.34,0,0,0-1.33,1.33v21.53a.38.38,0,0,1-.38.39H88.63a1.33,1.33,0,0,0-1.33,1.33v8.5a1.33,1.33,0,0,0,1.33,1.33h10.3a.4.4,0,0,1,.39.39v8.16a.39.39,0,0,1-.39.38H36.24a.38.38,0,0,1-.38-.38V122.1a.39.39,0,0,1,.38-.39h10.3a1.33,1.33,0,0,0,1.33-1.33v-8.5a1.33,1.33,0,0,0-1.33-1.33H25a.38.38,0,0,1-.39-.39V88.63a1.34,1.34,0,0,0-1.33-1.33H12.14a1.34,1.34,0,0,0-1.33,1.33v10.3a.38.38,0,0,1-.38.38H4.91a.38.38,0,0,1-.38-.38V33.6a.38.38,0,0,1,.38-.39h5.52a.38.38,0,0,1,.38.39V43.89a1.33,1.33,0,0,0,1.33,1.33H23.29a1.33,1.33,0,0,0,1.33-1.33V22.36A.39.39,0,0,1,25,22H46.54a1.33,1.33,0,0,0,1.33-1.32V12.14a1.34,1.34,0,0,0-1.33-1.33H36.24a.38.38,0,0,1-.38-.38V2.27a.39.39,0,0,1,.38-.39H98.93a.4.4,0,0,1,.39.39v8.16a.39.39,0,0,1-.39.38H88.63a1.34,1.34,0,0,0-1.33,1.33v8.51A1.33,1.33,0,0,0,88.63,22h21.54a.39.39,0,0,1,.38.39V43.89a1.33,1.33,0,0,0,1.33,1.33H123a1.33,1.33,0,0,0,1.33-1.33V33.6a.38.38,0,0,1,.38-.39h5.52a.39.39,0,0,1,.39.39V98.93ZM67.88,28.27a38.21,38.21,0,1,0,38.21,38.21A38.24,38.24,0,0,0,67.88,28.27"/></g></g></svg>