<svg xmlns="http://www.w3.org/2000/svg" viewBox="0 0 348.24 149.51"><defs><style>.cls-1{fill:#4e2222;}</style></defs><title>Asset 1@4x-9</title><g id="Layer_2" data-name="Layer 2"><g id="Layer_1-2" data-name="Layer 1"><path class="cls-1" d="M75.71,1.55c7,15.74,14,34.19,21.85,49.93-.91,1.21,1.21,1.51.91,2.42,2.13.91,1.52-2.12,2.73-3,7-16.64,13.35-33.58,20.94-50.22,4.25-.91,10-.61,14.87-.3-3,.6-7.59,1.51-9.41,5.74l-1.21,4.24,3.94,49c0,2.12,1.52,3,2.73,4.54,2.73,1.52,7.28,0,9.1.31l-7.28,4.53c-7.28-.3-15.78-1.21-21.54,0,3.64-1.51,6.67-3.32,8.8-6.65.3-16-2.13-29.66-2.73-46l-.91.3C112.13,30.3,106.66,44.82,100.9,59c.91,3,3.34,6.05,0,9.08a9.32,9.32,0,0,0-3.34,4.54c-.91.3-.61-1.21-.91-2.12C94.53,66.3,93.31,63,91.19,59c-1.52,0-3,2.42-3.64,3.94,1.82,25.11,3.94,50.22,7,75a10.4,10.4,0,0,0,5.76,6.66h8.8c-2.73,1.81-6.07,2.42-8.49,4.54-7.29-.61-16.09-.91-23.37.3,3.34-2.12,7.28-3.93,9.1-7.56-.6-15.13-3.33-30.56-3.94-45.39-1.22-.6.3-1.51-.3-2.12-2.13-7.26-1.22-14.82-3-21.78-3,2.72-2.73,7.56-5.76,10.89-.61-.3-1.52.3-2.13-.6L81.78,56.32l14-.3c.91.6-.61,1.81,1.21,1.51.31-.3,0-1.21.31-1.51-2.43-1.21-5.46-.3-7.89-.91C83.91,42.4,78.44,28.48,72.07,16.38c-1.82,1.51-1.21,4.84-1.82,7.26C67.52,41.49,68.73,60,63.88,77.5c-.91,2.42-3.64,3.63-4.55,6.35,6.67,2.12,14,0,19.42-.3-4.55,3.33-9.41,8.78-16.69,6-4.55.61-9.1-2.12-13.66,0,0,1.21,1.22.31,1.82.61,2.43,7.26,5.77,13,9.11,20.27,2.12.91.91-2.12,2.43-2.72a155,155,0,0,1,6.06-16.65c1.22,0,2.13-1.21,3.34-.9-3.34,8.17-7,16.64-9.71,25.72,0,2.72,3.34,4.23,1.82,7.26A47.15,47.15,0,0,0,59,129.54c-9.1-18.16-17-35.4-25.79-54.16h-.91C30.5,89.6,29.59,101.7,28.07,115c-.3,3.93-3.64,6.65-5.46,10,4.55-9.68,3.64-19.67,5.16-29.95.3-12.41,7-29.35-5.16-37.52-4.25-.3-8.8.3-11.53,2.72l1.52-2.42c6.07-.6,14.26-.91,21.85-.91,1.51.91,2.42,3.63,3,5.15,2.73,8.47,7.59,15.13,10.62,23.6,2.43-3.63,10.62,1.51,12.14-4.54,5.76-16.64,4.55-34.19,7-51.44.3-8.77,3.64-22.08-3.95-28.74C59.93.65,56,0,53.26,2.16,52.65-1.47,59.93,1.25,63,0c4.25.61,9.4-1.21,12.74,1.51"/><path class="cls-1" d="M257.11,32.67a9.36,9.36,0,0,0,3.95-3.06c11.24-.3,23.7.61,34.94-.61l-5.16,4.89-11.55.61c-2.13,9.79-.91,19.88-.91,29.36.61.91,2.13,2.44,3,.91h.91c-3,1.53-7.29.62-10.64.92.31-10.4-.61-20.18-.3-30.58l-1.52-.91c-4.56,0-11.24-1.84-13.67,2.75-.31,6.73-1.83,13.76-.61,20.18-.31,3.36-2.43,6.12-2.13,9.17-7.29-10.7-14.59-17.43-23.1-27.52l-.91.92c-.3,7.95-.3,19-2.12,26.91L227,66.3a235.76,235.76,0,0,0-1.21-28.74,10.31,10.31,0,0,0-5.47-5.81l-3,.3a116.79,116.79,0,0,0,14.89-2.13c7.29,8.25,13.07,15.59,20.36,22.93l.91-1.22c-.3-4-.6-7.65.31-11.63l-1.52-.91c1.21-2.75-.31-5.2-.92-8-.91-2.75-4.25-1.84-6.07-2.14,4-.61,7.9-.61,11.54-1.84Z"/><path class="cls-1" d="M215.43,60.11c0-10.67-.94-20.12.31-31.09l-15,.92-.31,1.21c2.49-1.21,5.3-1.21,7.17.61,2.49,8.54,1.25,17.38,1.25,25.61l-3.43,2.74,2.18-.91c1.56,1.22.62,4.57.93,6.4,3.74-.92,7.8-2.13,11.53-3.35-.62-.31-4,.3-4.67-2.14"/><path class="cls-1" d="M198,61.9c-2.73-.61-5.46-2.13-6.67-4.57-.6-8.52-.3-17-.3-25.87-4.24-2.74-8.79,0-13.64-.31a4.57,4.57,0,0,1,4.24,2.13c6.37,9.75-4.85,27.41,9.1,32.88,5.45.92,12.5-4.18,16.13-6.31L203.78,61c-1.82.3-3.64,1.52-5.76.91"/><path class="cls-1" d="M171.17,57.94c-2.74,3.05-5.79,5.18-10.35,5.48-7.31-.92-12.48-4.87-15.53-11.57a17.7,17.7,0,0,1,0-13.08c2.13-2.74,4.26-5.21,8.22-6.13,8.22.31,16.14,5.52,18.57,12.21,1.22,4.87,1.52,8.53-.91,13.09m5.17-19.48c-3-3-5.48-7.3-9.74-8.52-9.43-2.74-18.26,2.74-24.35,8.83a19.35,19.35,0,0,0-4,14.91A18.69,18.69,0,0,0,152.9,67.37c9.74-.3,16.44-5.78,22.83-11.86,2.74-5.18,4-11.87.61-17"/><path class="cls-1" d="M253.63,72.52c.31,2.13-.61,3.65,1.52,4.26h.61c-.61.3-1.52.3-2.13,1.22L253,100.21c2.13,2.74-2.42,6.39-1.21,10-6.68-8.52-15.48-17.34-23.38-26.47-.3,0-.6.3-.6-.31C225.7,92,226,100.21,225.1,108.12c-.31.31,0,1.22,0,2.13v-1.52h-.61c1.52-.91-1.22-1.82.3-3-.3-8.52-.61-17.35-1.21-25.57-.61-1.21-1.52-3-3-3.34-1.82.3-4.25-.61-6.07.6l.61-.91L230.56,75c6.07,8.82,12.75,15.22,19.43,22.21h.6c.61-3,.31-6.39.31-9.43-.91-4.56.91-12.17-5.16-14-1.22.3-2.13.61-3.34.91,1.82-2.74,7-.6,9.41-2.13h1.82Z"/><path class="cls-1" d="M119.65,74.93c4.56,12.5,11.54,24.68,17.61,34.74l4,1.22c-3-1.22-11.54,3-12.75-2.44-2.43-5.79-6.38-10-7.9-15.84-2.42-2.44-2.73-7.32-5.46-8.53-3,6.09-6.07,12.49-8.81,18.28,2.74-.31,6.38-.31,7.29-3.36-.91-.91-3-.6-2.73-2.43a22.17,22.17,0,0,1,3.89.88c1,.23,7-2.12,8-2.37a16.36,16.36,0,0,0-6.64,3.81c-2.85,2.58-5.26,5.82-7.67,6.51-3.64,1.53-8.2,2.44-9.41,7.31.3,1.22-.31,2.44-.91,3.66-1.22-.91,0-2.44,0-3.66,6.07-11,12.14-21.93,15.48-33.51.3-1.83-1.82-3-3-4a16.48,16.48,0,0,0-9.1,5.48c1.21-1.22.3-6.4,4.25-5.79Z"/><path class="cls-1" d="M211.06,103.55c-3.05,2.74-7.31,4.87-12.18,3.65-7.31-.61-11.57-5.78-14.31-11.87-.61-4.26-1.21-8.52.92-12.78,2.13-3,5.48-5.48,9.13-5.48,7.3.31,14.61,4.87,17.35,11.57,1.83,5.17,1.83,10.65-.91,14.91m5.17-21.3c-1.52-2.74-4.87-4.87-7.3-7-6.4-3.66-14,0-19.79,2.43-6.39,3.65-11.87,10.65-11.26,18.56.3,7.61,7.3,12.48,13.39,15.22,6.7,1.83,12.18-1.22,17-4,4-2.43,5.48-4.87,8.52-8.52,2.13-5.17,2.74-11.56-.61-16.73"/><path class="cls-1" d="M166.92,103a15.18,15.18,0,0,1-15.23,1.22c-3.35-2.43-7.61-6.07-8.22-10.63-.61-5.16.61-9.41,4.26-13,2.44-2.43,6.09-2.74,9.44-1.82,4.88,1.82,10.36,4.86,12.79,9.41a13.53,13.53,0,0,1-3,14.87m9.13-18.82c-4.26-9.41-17.66-13.66-28.93-15.79-1.52-1.21-5.18-1.52-4.26-3.94-2.44,2.43-4.27,5.16-4.27,8.5,3,2.43,7.31,3.34,11,4.55C143.47,82,138,88.09,138,95.68c.6,5.16,2.74,10.32,7,12.75,3.35,2.43,8.53,3.95,12.49,1.82,8.52-5.16,19.79-14,18.57-26.11"/><path class="cls-1" d="M309.8,83.71c.91,3.33,4.69,6.25,4.69,10.48-2.27,1.9-4.16,2.28-7.11,1.63-.6-.91-1.81-1.81-3-1.21-.3.3,0,.91-.3,1.21.91,1.52,3.94.31,2.73,3l-6.66,1.82-.3-.91c3.63-5.45,5.75-10.3,10-16.05M292,111.27c3.33-7.87,13.62-6.06,16.64-14.24,3.33.31,4.85-2.42,7.57-2.42.91,3,3.63,5.76,4.84,8.48,1.51,1.82,2.12,4.24,4.24,4.85,4.54-1.21,9.68-.61,14.22-2.43-2.72.91-5.14-.3-7.86-.6-7.27-9.69-14.53-21.5-18.47-31.8l-9.68.6-.91.91c1.81-.3,3.63.91,4.84,3-3,11.81-9.38,23.32-16,32.71-3-3.63,3.33-7.27.3-10.3,0-9.08.91-18.17,1.52-27.25-3.94.3-7.57.6-11.2.9l-.31.61L285,74c5.45,4.84,4.54,15.14,5.15,22.41l-.91.6c-2.72-2.72-6.66-4.84-8.17-8.48-4.24-4.24-7.57-8.78-11.5-13.63-3.63.61-8.48.61-11.2,1.82,1.82-.3,2.72,1.21,3.63,2.42a237.36,237.36,0,0,1,1.52,32.41h.6c-.6-7.27,1.21-13.93,1.82-21.5,0-1.82-1.21-5.46.9-6.36,7,7.87,14.71,16.44,22,24.92,2,2.92.75,4-.19,5.79,0,0-4.68,3.65-3.56,7.92.44,1.66,1.35,1.13,1.35,1.13,1.57-1-4.5,1.5,2.7-6.9,0,0,.6-.53,2.86-5.3"/><path class="cls-1" d="M21.85,126.38c7.39,1,16.93,1.63,23.7-.33C34.16,138.42,14.77,130.29,0,134.19c1.54-2.6,4.31-4.88,5.85-7.49H20.93l1.23-2c0,.65-.62,1-.31,1.63"/><path class="cls-1" d="M114.78,136.71a3.84,3.84,0,0,1-3.57,0,4.08,4.08,0,0,1-1.35-1.27,6.2,6.2,0,0,1-.85-1.93,9.36,9.36,0,0,1-.31-2.44,9.52,9.52,0,0,1,.31-2.46,6.21,6.21,0,0,1,.86-1.93,4.08,4.08,0,0,1,1.35-1.27,3.53,3.53,0,0,1,1.77-.45,4,4,0,0,1,1.75.37,3.09,3.09,0,0,1,1.23,1.06l-1.13,1.38a2,2,0,0,0-1.74-1,1.62,1.62,0,0,0-1,.34,2.51,2.51,0,0,0-.74.91,4.87,4.87,0,0,0-.44,1.35,8.87,8.87,0,0,0-.15,1.67,8.73,8.73,0,0,0,.15,1.65,4.87,4.87,0,0,0,.44,1.35,2.62,2.62,0,0,0,.75.91,1.68,1.68,0,0,0,1.06.34,1.66,1.66,0,0,0,1-.3,2.67,2.67,0,0,0,.7-.72l1.13,1.33a3.72,3.72,0,0,1-1.18,1.12"/><path class="cls-1" d="M118.62,133.13a3.87,3.87,0,0,0,.1.92,2.61,2.61,0,0,0,.28.76,1.75,1.75,0,0,0,.46.51,1.12,1.12,0,0,0,.63.19,1.08,1.08,0,0,0,.82-.33,2.58,2.58,0,0,0,.48-.76l1.36.79a3.39,3.39,0,0,1-1,1.39,2.73,2.73,0,0,1-1.7.52,2.83,2.83,0,0,1-2.35-1.15,5.34,5.34,0,0,1-.88-3.3,6.55,6.55,0,0,1,.23-1.83,4.43,4.43,0,0,1,.65-1.42,3,3,0,0,1,1-.91,2.6,2.6,0,0,1,1.31-.32,2.7,2.7,0,0,1,1.37.33,2.5,2.5,0,0,1,.91.89,4,4,0,0,1,.52,1.34,7.94,7.94,0,0,1,.17,1.67v.71Zm2.57-1.35a3.49,3.49,0,0,0-.29-1.52,1,1,0,0,0-.92-.58,1,1,0,0,0-.62.21,1.72,1.72,0,0,0-.41.54,2.94,2.94,0,0,0-.23.69,2.8,2.8,0,0,0-.09.66Z"/><path class="cls-1" d="M126.49,128.47v1.33h0a2.61,2.61,0,0,1,.76-1.15,2.21,2.21,0,0,1,2.43-.18,2,2,0,0,1,.65.77,3.77,3.77,0,0,1,.31,1.09,10.36,10.36,0,0,1,.08,1.25v5.26h-1.85v-5.26a4.64,4.64,0,0,0,0-.63,1.76,1.76,0,0,0-.14-.58,1,1,0,0,0-.31-.42.86.86,0,0,0-.53-.15,1.09,1.09,0,0,0-1,.62,3,3,0,0,0-.37,1.57v4.85h-1.86v-8.37Z"/><path class="cls-1" d="M134.8,129.89v4.3a2,2,0,0,0,.2,1,.73.73,0,0,0,.64.31,1.55,1.55,0,0,0,.57-.13l0,1.44a1.78,1.78,0,0,1-.52.16,3,3,0,0,1-.66.07,1.78,1.78,0,0,1-1.53-.63,3,3,0,0,1-.47-1.82v-4.71H132v-1.42h1.05v-2.14h1.74v2.14h1.46v1.42Z"/><path class="cls-1" d="M138.92,133.13a3.87,3.87,0,0,0,.1.92,2.61,2.61,0,0,0,.28.76,1.75,1.75,0,0,0,.46.51,1.12,1.12,0,0,0,.63.19,1.08,1.08,0,0,0,.82-.33,2.58,2.58,0,0,0,.48-.76l1.36.79a3.39,3.39,0,0,1-1,1.39,2.73,2.73,0,0,1-1.7.52A2.83,2.83,0,0,1,138,136a5.34,5.34,0,0,1-.88-3.3,6.55,6.55,0,0,1,.23-1.83,4.43,4.43,0,0,1,.65-1.42,3,3,0,0,1,1-.91,2.6,2.6,0,0,1,1.31-.32,2.7,2.7,0,0,1,1.37.33,2.5,2.5,0,0,1,.91.89,4,4,0,0,1,.52,1.34,7.94,7.94,0,0,1,.17,1.67v.71Zm2.57-1.35a3.49,3.49,0,0,0-.29-1.52,1,1,0,0,0-.92-.58,1,1,0,0,0-.62.21,1.72,1.72,0,0,0-.41.54,2.94,2.94,0,0,0-.23.69,2.8,2.8,0,0,0-.09.66Z"/><path class="cls-1" d="M147.5,128.66a1.49,1.49,0,0,1,1.08-.47h.14l.14,0-.1,1.9a1.6,1.6,0,0,0-.39-.05,1,1,0,0,0-.64.23,1.86,1.86,0,0,0-.48.58,2.84,2.84,0,0,0-.29.82,4.23,4.23,0,0,0-.1.94v4.2H145v-8.37h1.82v1.6h0a2.91,2.91,0,0,1,.67-1.41"/><path class="cls-1" d="M156.61,125.73a1.26,1.26,0,0,0-.49-.09.88.88,0,0,0-.51.14,1,1,0,0,0-.31.37,1.74,1.74,0,0,0-.17.53,4,4,0,0,0,0,.61v1.18h1.35v1.47H155.1v6.9h-1.81v-6.9h-1v-1.47h1v-1.22a5.48,5.48,0,0,1,.14-1.24,2.91,2.91,0,0,1,.45-1,2.16,2.16,0,0,1,.79-.67,2.67,2.67,0,0,1,1.18-.25,4.14,4.14,0,0,1,.45,0,1.62,1.62,0,0,1,.42.1Z"/><path class="cls-1" d="M163.55,132.67a6.78,6.78,0,0,1-.22,1.8,4.36,4.36,0,0,1-.64,1.41,3.16,3.16,0,0,1-1,.91,2.91,2.91,0,0,1-2.69,0,3.16,3.16,0,0,1-1-.91,4.36,4.36,0,0,1-.64-1.41,6.78,6.78,0,0,1-.22-1.8,7,7,0,0,1,.22-1.83,4.41,4.41,0,0,1,.64-1.42,2.77,2.77,0,0,1,2.37-1.23,2.68,2.68,0,0,1,1.34.32,2.85,2.85,0,0,1,1,.91,4.41,4.41,0,0,1,.64,1.42,7,7,0,0,1,.22,1.83m-1.85,0a6.52,6.52,0,0,0-.09-1.12,3.64,3.64,0,0,0-.25-.91,1.85,1.85,0,0,0-.43-.6.88.88,0,0,0-.61-.22.91.91,0,0,0-.62.22,1.69,1.69,0,0,0-.42.6,3.65,3.65,0,0,0-.24.91,6.52,6.52,0,0,0-.09,1.12,6.6,6.6,0,0,0,.09,1.12,3.45,3.45,0,0,0,.24.9,1.69,1.69,0,0,0,.42.6,1,1,0,0,0,1.24,0,1.6,1.6,0,0,0,.43-.6,3.45,3.45,0,0,0,.24-.9,6.6,6.6,0,0,0,.09-1.12"/><path class="cls-1" d="M167.83,128.66a1.49,1.49,0,0,1,1.09-.47h.14l.14,0-.1,1.9a1.62,1.62,0,0,0-.4-.05,1,1,0,0,0-.64.23,1.84,1.84,0,0,0-.47.58,3.17,3.17,0,0,0-.3.82,4.92,4.92,0,0,0-.1.94v4.2h-1.88v-8.37h1.82v1.6h0a3,3,0,0,1,.67-1.41"/><rect class="cls-1" x="173.51" y="124.43" width="1.85" height="12.41"/><path class="cls-1" d="M178.94,133.13a4.47,4.47,0,0,0,.1.92,2.62,2.62,0,0,0,.29.76,1.75,1.75,0,0,0,.46.51,1.12,1.12,0,0,0,.63.19,1,1,0,0,0,.81-.33,2.42,2.42,0,0,0,.49-.76l1.36.79a3.32,3.32,0,0,1-1,1.39,2.7,2.7,0,0,1-1.69.52A2.83,2.83,0,0,1,178,136a5.33,5.33,0,0,1-.89-3.3,6.94,6.94,0,0,1,.23-1.83,4.23,4.23,0,0,1,.66-1.42,2.91,2.91,0,0,1,1-.91,2.58,2.58,0,0,1,1.3-.32,2.65,2.65,0,0,1,1.37.33,2.45,2.45,0,0,1,.92.89,4,4,0,0,1,.52,1.34,8,8,0,0,1,.16,1.67v.71Zm2.58-1.35a3.49,3.49,0,0,0-.29-1.52,1,1,0,0,0-.92-.58,1,1,0,0,0-.62.21,1.58,1.58,0,0,0-.41.54,3.5,3.5,0,0,0-.24.69,3.37,3.37,0,0,0-.08.66Z"/><path class="cls-1" d="M188.43,135.59a1.93,1.93,0,0,1-.66,1.07,1.9,1.9,0,0,1-1.26.39,2.18,2.18,0,0,1-.74-.13,1.73,1.73,0,0,1-.68-.44,2.33,2.33,0,0,1-.5-.78,3.2,3.2,0,0,1-.2-1.18,3,3,0,0,1,.32-1.45,2.52,2.52,0,0,1,.82-.89,3.35,3.35,0,0,1,1.12-.46,6.28,6.28,0,0,1,1.21-.12h.46v-.26a1.8,1.8,0,0,0-.34-1.21,1.17,1.17,0,0,0-.9-.37,1.8,1.8,0,0,0-.86.22,2.32,2.32,0,0,0-.66.59l-.89-1.17a3.15,3.15,0,0,1,1.17-.89,3.23,3.23,0,0,1,1.39-.32,3.19,3.19,0,0,1,1.31.24,2.23,2.23,0,0,1,.86.72,3.14,3.14,0,0,1,.47,1.16,8,8,0,0,1,.14,1.55v5h-1.55v-1.25Zm-.07-2.68h-.54a3.52,3.52,0,0,0-.66.06,1.58,1.58,0,0,0-.57.22,1.23,1.23,0,0,0-.39.45,1.61,1.61,0,0,0-.15.73,1.39,1.39,0,0,0,.29,1,.86.86,0,0,0,.66.31,1,1,0,0,0,.64-.21,1.41,1.41,0,0,0,.42-.54,2.71,2.71,0,0,0,.23-.73,4.26,4.26,0,0,0,.07-.78Z"/><path class="cls-1" d="M194.67,128.66a1.45,1.45,0,0,1,1.08-.47h.14l.14,0-.1,1.9a1.6,1.6,0,0,0-.39-.05,1,1,0,0,0-.64.23,1.74,1.74,0,0,0-.48.58,2.84,2.84,0,0,0-.29.82,4.23,4.23,0,0,0-.1.94v4.2h-1.89v-8.37H194v1.6h0a3,3,0,0,1,.68-1.41"/><path class="cls-1" d="M199,128.47v1.33h0a2.72,2.72,0,0,1,.77-1.15,2.2,2.2,0,0,1,2.42-.18,2,2,0,0,1,.65.77,3.48,3.48,0,0,1,.31,1.09,8.66,8.66,0,0,1,.09,1.25v5.26h-1.86v-5.26q0-.3,0-.63a2.05,2.05,0,0,0-.14-.58,1.1,1.1,0,0,0-.31-.42.91.91,0,0,0-.54-.15,1.11,1.11,0,0,0-1,.62A3,3,0,0,0,199,132v4.85h-1.85v-8.37Z"/><path class="cls-1" d="M207.43,126a1.13,1.13,0,0,1-.31.82,1.08,1.08,0,0,1-1.55,0,1.17,1.17,0,0,1-.3-.82,1.2,1.2,0,0,1,.3-.82,1,1,0,0,1,1.56,0,1.2,1.2,0,0,1,.3.82m-2,2.43h1.86v8.37h-1.86Z"/><path class="cls-1" d="M211.36,128.47v1.33h0a2.7,2.7,0,0,1,.76-1.15,1.94,1.94,0,0,1,3.08.59,3.48,3.48,0,0,1,.31,1.09,8.65,8.65,0,0,1,.08,1.25v5.26h-1.85v-5.26q0-.3,0-.63a2.46,2.46,0,0,0-.14-.58,1.1,1.1,0,0,0-.31-.42.91.91,0,0,0-.54-.15,1.1,1.1,0,0,0-1,.62,3,3,0,0,0-.37,1.57v4.85h-1.85v-8.37Z"/><path class="cls-1" d="M223.67,136.61a7.28,7.28,0,0,1-.19,1.69,3.46,3.46,0,0,1-.59,1.32,2.75,2.75,0,0,1-1,.85,3.61,3.61,0,0,1-1.56.31,4.2,4.2,0,0,1-1.65-.34,3.64,3.64,0,0,1-1.3-.9l1-1.33a2.9,2.9,0,0,0,.85.66,2.11,2.11,0,0,0,1.06.26A1.54,1.54,0,0,0,221,139a1.62,1.62,0,0,0,.5-.51,2.72,2.72,0,0,0,.27-.76,5.49,5.49,0,0,0,.08-.94v-1h0a2,2,0,0,1-.67.94,1.8,1.8,0,0,1-1.17.39,2.12,2.12,0,0,1-1.18-.33,2.61,2.61,0,0,1-.85-.92,5.16,5.16,0,0,1-.51-1.39,8.76,8.76,0,0,1-.17-1.76,8.42,8.42,0,0,1,.18-1.79,4.87,4.87,0,0,1,.53-1.41,2.92,2.92,0,0,1,.84-.93,2.07,2.07,0,0,1,1.16-.33,1.7,1.7,0,0,1,1.23.42,2.41,2.41,0,0,1,.62,1h0v-1.18h1.78Zm-1.76-4a6.57,6.57,0,0,0-.09-1.11,3.86,3.86,0,0,0-.26-.9,1.56,1.56,0,0,0-.44-.6.9.9,0,0,0-.61-.22.92.92,0,0,0-.62.22,1.55,1.55,0,0,0-.43.6,3.45,3.45,0,0,0-.24.9,7.81,7.81,0,0,0,0,2.23,3.65,3.65,0,0,0,.24.91,1.67,1.67,0,0,0,.43.61.92.92,0,0,0,.62.22.9.9,0,0,0,.61-.22,1.69,1.69,0,0,0,.44-.61,4.1,4.1,0,0,0,.26-.91,6.6,6.6,0,0,0,.09-1.12"/><path class="cls-1" d="M227.9,135.77a1.21,1.21,0,0,1-.32.85,1.07,1.07,0,0,1-.81.35,1.05,1.05,0,0,1-.81-.35,1.2,1.2,0,0,1-.31-.85,1.24,1.24,0,0,1,.31-.85,1,1,0,0,1,.81-.37,1.05,1.05,0,0,1,.81.37,1.25,1.25,0,0,1,.32.85"/><path class="cls-1" d="M239.65,128.65a4.13,4.13,0,0,1-.27,1.55,3.47,3.47,0,0,1-.71,1.11,2.82,2.82,0,0,1-1,.65,3.15,3.15,0,0,1-1.17.22H235.1v4.66h-1.93V125.22h3.2a4.2,4.2,0,0,1,1.15.16,2.73,2.73,0,0,1,1.06.57,3.19,3.19,0,0,1,.77,1.06,3.91,3.91,0,0,1,.3,1.64m-1.86,0a1.77,1.77,0,0,0-.44-1.35,1.53,1.53,0,0,0-1.13-.43H235.1v3.68h1.12a1.43,1.43,0,0,0,1.13-.49,2,2,0,0,0,.44-1.41"/><path class="cls-1" d="M243.78,128.66a1.49,1.49,0,0,1,1.09-.47H245l.14,0-.1,1.9a1.62,1.62,0,0,0-.4-.05,1,1,0,0,0-.64.23,1.84,1.84,0,0,0-.47.58,3.17,3.17,0,0,0-.3.82,4.92,4.92,0,0,0-.1.94v4.2h-1.88v-8.37h1.82v1.6h0a3,3,0,0,1,.67-1.41"/><path class="cls-1" d="M249.73,135.59a2,2,0,0,1-.66,1.07,1.94,1.94,0,0,1-1.26.39,2.14,2.14,0,0,1-.74-.13,1.66,1.66,0,0,1-.68-.44,2.19,2.19,0,0,1-.5-.78,3,3,0,0,1-.2-1.18,3,3,0,0,1,.32-1.45,2.44,2.44,0,0,1,.82-.89,3.22,3.22,0,0,1,1.11-.46,6.36,6.36,0,0,1,1.21-.12h.46v-.26a1.75,1.75,0,0,0-.34-1.21,1.16,1.16,0,0,0-.89-.37,1.74,1.74,0,0,0-.86.22,2.36,2.36,0,0,0-.67.59L246,129.4a3,3,0,0,1,1.16-.89,3.28,3.28,0,0,1,1.4-.32,3.14,3.14,0,0,1,1.3.24,2.16,2.16,0,0,1,.86.72,3,3,0,0,1,.47,1.16,8,8,0,0,1,.14,1.55v5h-1.54v-1.25Zm-.07-2.68h-.54a3.71,3.71,0,0,0-.67.06,1.46,1.46,0,0,0-.56.22,1.17,1.17,0,0,0-.4.45,1.61,1.61,0,0,0-.14.73,1.39,1.39,0,0,0,.28,1,.88.88,0,0,0,.67.31,1,1,0,0,0,.64-.21,1.63,1.63,0,0,0,.42-.54,3.12,3.12,0,0,0,.23-.73,4.26,4.26,0,0,0,.07-.78Z"/><path class="cls-1" d="M257.18,136.91a2.83,2.83,0,0,1-1.12.21,2.78,2.78,0,0,1-1.37-.33,2.92,2.92,0,0,1-1-.93,4.46,4.46,0,0,1-.59-1.42,8,8,0,0,1,0-3.61,4.13,4.13,0,0,1,.61-1.41,2.77,2.77,0,0,1,1-.91,2.71,2.71,0,0,1,1.36-.32,2.72,2.72,0,0,1,1.92.74l-.84,1.39a1.7,1.7,0,0,0-.42-.33,1.27,1.27,0,0,0-.58-.13,1.12,1.12,0,0,0-1,.76,4.78,4.78,0,0,0-.36,2,4.71,4.71,0,0,0,.36,2,1.17,1.17,0,0,0,1.1.75,1.2,1.2,0,0,0,.59-.13,1.36,1.36,0,0,0,.43-.36l.77,1.44a2.41,2.41,0,0,1-.83.57"/><path class="cls-1" d="M261,129.89v4.3a1.88,1.88,0,0,0,.21,1,.73.73,0,0,0,.63.31,1,1,0,0,0,.3,0,.85.85,0,0,0,.27-.09l0,1.44a1.86,1.86,0,0,1-.53.16,2.94,2.94,0,0,1-.65.07,1.78,1.78,0,0,1-1.54-.63,3,3,0,0,1-.47-1.82v-4.71h-1.05v-1.42h1.05v-2.14H261v2.14h1.46v1.42Z"/><path class="cls-1" d="M265.83,126a1.14,1.14,0,0,1-.32.82,1,1,0,0,1-.77.33,1,1,0,0,1-.78-.33,1.17,1.17,0,0,1-.3-.82,1.2,1.2,0,0,1,.3-.82,1,1,0,0,1,.78-.35,1,1,0,0,1,.78.35,1.21,1.21,0,0,1,.31.82m-2,2.43h1.86v8.37h-1.86Z"/><path class="cls-1" d="M271.67,136.91a2.83,2.83,0,0,1-1.12.21,2.74,2.74,0,0,1-1.36-.33,2.86,2.86,0,0,1-1-.93,4.46,4.46,0,0,1-.59-1.42,7.81,7.81,0,0,1-.2-1.8,7.31,7.31,0,0,1,.21-1.81,4.33,4.33,0,0,1,.61-1.41,2.77,2.77,0,0,1,1-.91,2.71,2.71,0,0,1,1.36-.32,2.61,2.61,0,0,1,1.16.23,2.65,2.65,0,0,1,.76.51l-.84,1.39a1.7,1.7,0,0,0-.42-.33,1.27,1.27,0,0,0-.58-.13,1.12,1.12,0,0,0-1,.76,4.79,4.79,0,0,0-.35,2,4.71,4.71,0,0,0,.36,2,1.16,1.16,0,0,0,1.1.75,1.22,1.22,0,0,0,.59-.13,1.44,1.44,0,0,0,.42-.36l.77,1.44a2.32,2.32,0,0,1-.83.57"/><path class="cls-1" d="M275,133.13a4.47,4.47,0,0,0,.1.92,2.62,2.62,0,0,0,.29.76,1.62,1.62,0,0,0,.46.51,1.12,1.12,0,0,0,.63.19,1,1,0,0,0,.81-.33,2.61,2.61,0,0,0,.49-.76l1.36.79a3.32,3.32,0,0,1-1,1.39,2.71,2.71,0,0,1-1.7.52,2.83,2.83,0,0,1-2.34-1.15,5.33,5.33,0,0,1-.89-3.3,6.94,6.94,0,0,1,.23-1.83,4.23,4.23,0,0,1,.66-1.42,2.91,2.91,0,0,1,1-.91,2.56,2.56,0,0,1,1.3-.32,2.67,2.67,0,0,1,1.37.33,2.53,2.53,0,0,1,.92.89,4,4,0,0,1,.52,1.34,8,8,0,0,1,.16,1.67v.71Zm2.58-1.35a3.34,3.34,0,0,0-.3-1.52,1,1,0,0,0-.92-.58.92.92,0,0,0-.61.21,1.58,1.58,0,0,0-.41.54,3,3,0,0,0-.24.69,3.37,3.37,0,0,0-.08.66Z"/><path class="cls-1" d="M284.57,130.35a2.2,2.2,0,0,0-.58-.51,1.55,1.55,0,0,0-.78-.19.88.88,0,0,0-.69.29,1,1,0,0,0-.28.76.84.84,0,0,0,.29.71,3.58,3.58,0,0,0,.94.45,6.43,6.43,0,0,1,.71.32,2.54,2.54,0,0,1,.64.49,2.08,2.08,0,0,1,.46.71,2.5,2.5,0,0,1,.17,1,3,3,0,0,1-.22,1.21,2.46,2.46,0,0,1-.6.86,2.42,2.42,0,0,1-.86.51,3.1,3.1,0,0,1-1,.17,3.5,3.5,0,0,1-1.47-.32,3.33,3.33,0,0,1-1.15-.83l1-1.18a3.07,3.07,0,0,0,.69.59,1.7,1.7,0,0,0,.92.24.9.9,0,0,0,.72-.31,1.26,1.26,0,0,0,.26-.82,1,1,0,0,0-.39-.85,4.4,4.4,0,0,0-1-.5,4,4,0,0,1-.64-.28,2.17,2.17,0,0,1-.58-.44,2,2,0,0,1-.41-.68,2.58,2.58,0,0,1-.16-1,2.51,2.51,0,0,1,.22-1.08,2.54,2.54,0,0,1,.58-.81,2.26,2.26,0,0,1,.84-.51,3,3,0,0,1,1-.17,3.34,3.34,0,0,1,1.36.27,3.29,3.29,0,0,1,1,.7Z"/><path class="cls-1" d="M293.72,125.73a1.22,1.22,0,0,0-.49-.09.88.88,0,0,0-.51.14,1.12,1.12,0,0,0-.31.37,1.73,1.73,0,0,0-.16.53,3,3,0,0,0-.05.61v1.18h1.34v1.47h-1.33v6.9h-1.8v-6.9h-1.05v-1.47h1.05v-1.22a5,5,0,0,1,.14-1.24,2.9,2.9,0,0,1,.44-1,2.19,2.19,0,0,1,.8-.67,2.67,2.67,0,0,1,1.18-.25,3.77,3.77,0,0,1,.44,0,1.6,1.6,0,0,1,.43.1Z"/><path class="cls-1" d="M300.67,132.67a6.77,6.77,0,0,1-.23,1.8,4.16,4.16,0,0,1-.64,1.41,3.13,3.13,0,0,1-1,.91,2.7,2.7,0,0,1-1.35.33,2.75,2.75,0,0,1-1.35-.33,3.24,3.24,0,0,1-1-.91,4.36,4.36,0,0,1-.64-1.41,6.78,6.78,0,0,1-.22-1.8,7,7,0,0,1,.22-1.83,4.63,4.63,0,0,1,.63-1.42,2.82,2.82,0,0,1,1-.91,2.79,2.79,0,0,1,1.36-.32,2.7,2.7,0,0,1,1.35.32,2.82,2.82,0,0,1,1,.91,4.21,4.21,0,0,1,.64,1.42,6.94,6.94,0,0,1,.23,1.83m-1.86,0a7.76,7.76,0,0,0-.08-1.12,4.12,4.12,0,0,0-.25-.91,1.85,1.85,0,0,0-.43-.6.91.91,0,0,0-.62-.22.88.88,0,0,0-.61.22,1.69,1.69,0,0,0-.42.6,4.12,4.12,0,0,0-.25.91,7.76,7.76,0,0,0-.08,1.12,7.87,7.87,0,0,0,.08,1.12,3.88,3.88,0,0,0,.25.9,1.69,1.69,0,0,0,.42.6.88.88,0,0,0,.61.22,1,1,0,0,0,.63-.22,1.69,1.69,0,0,0,.42-.6,3.88,3.88,0,0,0,.25-.9,7.87,7.87,0,0,0,.08-1.12"/><path class="cls-1" d="M305,128.66a1.49,1.49,0,0,1,1.08-.47h.14l.14,0-.1,1.9a1.6,1.6,0,0,0-.39-.05,1,1,0,0,0-.64.23,1.74,1.74,0,0,0-.48.58,2.84,2.84,0,0,0-.29.82,4.23,4.23,0,0,0-.1.94v4.2h-1.89v-8.37h1.82v1.6h0a2.91,2.91,0,0,1,.67-1.41"/><rect class="cls-1" x="310.63" y="124.43" width="1.85" height="12.41"/><path class="cls-1" d="M316.73,126a1.13,1.13,0,0,1-.31.82,1.08,1.08,0,0,1-1.55,0,1.17,1.17,0,0,1-.3-.82,1.2,1.2,0,0,1,.3-.82,1,1,0,0,1,1.56,0,1.2,1.2,0,0,1,.3.82m-2,2.43h1.85v8.37h-1.85Z"/><polygon class="cls-1" points="322.28 136.84 320.06 136.84 317.85 128.47 319.8 128.47 321.21 134.88 321.25 134.88 322.61 128.47 324.49 128.47 322.28 136.84"/><path class="cls-1" d="M327.78,126a1.14,1.14,0,0,1-.32.82,1,1,0,0,1-.77.33,1,1,0,0,1-.78-.33,1.17,1.17,0,0,1-.3-.82,1.2,1.2,0,0,1,.3-.82,1,1,0,0,1,.78-.35,1,1,0,0,1,.78.35,1.21,1.21,0,0,1,.31.82m-2,2.43h1.86v8.37h-1.86Z"/><path class="cls-1" d="M331.7,128.47v1.33h0a2.72,2.72,0,0,1,.77-1.15,2.2,2.2,0,0,1,2.42-.18,2,2,0,0,1,.65.77,3.23,3.23,0,0,1,.31,1.09,8.66,8.66,0,0,1,.09,1.25v5.26h-1.86v-5.26q0-.3,0-.63a2.05,2.05,0,0,0-.14-.58,1.1,1.1,0,0,0-.31-.42.91.91,0,0,0-.54-.15,1.11,1.11,0,0,0-1,.62,3,3,0,0,0-.37,1.57v4.85h-1.85v-8.37Z"/><path class="cls-1" d="M344,136.61a7.3,7.3,0,0,1-.18,1.69,3.62,3.62,0,0,1-.59,1.32,2.9,2.9,0,0,1-1.05.85,3.67,3.67,0,0,1-1.56.31,4.25,4.25,0,0,1-1.66-.34,3.64,3.64,0,0,1-1.3-.9l1-1.33a3,3,0,0,0,.85.66,2.11,2.11,0,0,0,1.06.26,1.35,1.35,0,0,0,1.27-.69,2.44,2.44,0,0,0,.27-.76,5.49,5.49,0,0,0,.08-.94v-1h0a1.89,1.89,0,0,1-.67.94,1.8,1.8,0,0,1-1.17.39,2.12,2.12,0,0,1-1.18-.33,2.61,2.61,0,0,1-.85-.92,4.84,4.84,0,0,1-.5-1.39,8.07,8.07,0,0,1-.18-1.76,8.42,8.42,0,0,1,.18-1.79,4.87,4.87,0,0,1,.53-1.41,2.92,2.92,0,0,1,.84-.93,2.07,2.07,0,0,1,1.16-.33,1.67,1.67,0,0,1,1.23.42,2.43,2.43,0,0,1,.63,1h0v-1.18H344Zm-1.76-4a6.57,6.57,0,0,0-.09-1.11,3.86,3.86,0,0,0-.26-.9,1.56,1.56,0,0,0-.44-.6.87.87,0,0,0-.6-.22,1,1,0,0,0-.63.22,1.53,1.53,0,0,0-.42.6,3.44,3.44,0,0,0-.25.9,7.81,7.81,0,0,0,0,2.23,3.64,3.64,0,0,0,.25.91,1.65,1.65,0,0,0,.42.61,1,1,0,0,0,.63.22.87.87,0,0,0,.6-.22,1.69,1.69,0,0,0,.44-.61,4.1,4.1,0,0,0,.26-.91,6.6,6.6,0,0,0,.09-1.12"/><path class="cls-1" d="M348.24,135.77a1.17,1.17,0,0,1-.32.85,1.11,1.11,0,0,1-1.62,0,1.25,1.25,0,0,1-.31-.85,1.29,1.29,0,0,1,.31-.85,1.07,1.07,0,0,1,1.62,0,1.2,1.2,0,0,1,.32.85"/></g></g></svg>
