<svg xmlns="http://www.w3.org/2000/svg" xmlns:xlink="http://www.w3.org/1999/xlink" viewBox="0 0 458.76 111.92"><defs><style>.cls-1{fill:url(#linear-gradient);}.cls-2{fill:none;}.cls-3{clip-path:url(#clip-path);}.cls-4{fill:#fff;}.cls-5{clip-path:url(#clip-path-2);}.cls-6{mask:url(#mask);}.cls-7{fill:url(#linear-gradient-2);}.cls-8{opacity:0.3;}.cls-9{clip-path:url(#clip-path-4);}</style><linearGradient id="linear-gradient" x1="-252.94" y1="196.97" x2="-252.45" y2="196.97" gradientTransform="matrix(0, -73.94, -73.94, 0, 14625.75, -18614.99)" gradientUnits="userSpaceOnUse"><stop offset="0" stop-color="#666"/><stop offset="0.32" stop-color="#666"/><stop offset="1" stop-color="#ccc"/></linearGradient><clipPath id="clip-path" transform="translate(-4.08 -3.02)"><rect class="cls-2" width="466.92" height="117.96"/></clipPath><clipPath id="clip-path-2" transform="translate(-4.08 -3.02)"><path class="cls-2" d="M63.1,52.05c-1.29.52-2.13,1.9-3,3.36a20.89,20.89,0,0,1-1.41,2.15l-3.33,4.35c-3.26,4.28-5.6,7.34-5.89,7.7a6,6,0,0,1-2.85,2h-.06a5.36,5.36,0,0,1-1.6.3,3.07,3.07,0,0,1-1.77-.55c-1.54-1-4.77-7.29-6.62-11.07h-4.1a29,29,0,0,0,57.88.05l-.46,0a7.83,7.83,0,0,1-4.27-.44,4.05,4.05,0,0,1-.85-.65l-.14-.14a4.54,4.54,0,0,0-.83-.18,7.53,7.53,0,0,1-1.47-.37,4.61,4.61,0,0,1-2.38-2.2,5.3,5.3,0,0,0-.48-.72c-.34-.43-.76-.67-1.83-.56-.36,0-.72.08-1.07.12a10.43,10.43,0,0,1-5.27-.29l-.28-.1a11.82,11.82,0,0,1-4.29-2.32,3.33,3.33,0,0,0-2.19-.71,3.78,3.78,0,0,0-1.43.26"/></clipPath><mask id="mask" x="28.39" y="48.77" width="57.88" height="36.34" maskUnits="userSpaceOnUse"><g transform="translate(-4.08 -3.02)"><rect class="cls-1" x="32.46" y="51.79" width="57.88" height="36.34"/></g></mask><linearGradient id="linear-gradient-2" x1="-252.94" y1="196.97" x2="-252.45" y2="196.97" gradientTransform="matrix(0, -73.94, -73.94, 0, 14621.67, -18618.01)" gradientUnits="userSpaceOnUse"><stop offset="0" stop-color="#fff"/><stop offset="0.32" stop-color="#fff"/><stop offset="1" stop-color="#fff"/></linearGradient><clipPath id="clip-path-4" transform="translate(-4.08 -3.02)"><rect class="cls-2" x="7.66" y="4.61" width="106.51" height="108.74"/></clipPath></defs><title>Asset 1@4x-9</title><g id="Layer_2" data-name="Layer 2"><g id="Layer_2-2" data-name="Layer 2"><g class="cls-3"><path class="cls-4" d="M159.51,26.87q3.53,6.71,7.38,13.75c.33-.63.81-1.54,1.45-2.72s1.36-2.54,2.2-4.08,1.72-3.19,2.67-5l2.9-5.43c1-1.83,2-3.63,2.92-5.39s1.87-3.42,2.7-5h.65q.56,4.82,1,9.28c.31,3,.64,5.92,1,8.8s.67,5.73,1,8.55.7,5.6,1.1,8.37a6.77,6.77,0,0,0-1.17-.1H183a6.68,6.68,0,0,0-1.17.1q-.56-6.65-1.1-12.9t-1.35-12.75h-.11q-3.45,6.3-6.77,12.53t-6.32,13h-.45q-3-6.3-6.28-12.62t-6.57-12.93h-.1c-.24,2.07-.49,4.31-.78,6.73s-.54,4.8-.77,7.15-.43,4.56-.6,6.65-.25,3.79-.25,5.12a15.36,15.36,0,0,0-3.5,0q.65-4.05,1.35-8.55c.47-3,.91-6,1.35-9.05s.83-6,1.2-9,.68-5.76.95-8.43h.85q3.45,7.11,7,13.8" transform="translate(-4.08 -3.02)"/><path class="cls-4" d="M199.43,31a19.61,19.61,0,0,1,1.38-7.57,15.52,15.52,0,0,1,3.85-5.62,16.54,16.54,0,0,1,5.92-3.51,24.51,24.51,0,0,1,15.15,0,16.63,16.63,0,0,1,5.92,3.51,15.77,15.77,0,0,1,3.85,5.62A19.61,19.61,0,0,1,236.87,31a19.63,19.63,0,0,1-1.37,7.58,15.47,15.47,0,0,1-9.77,9.05,26.18,26.18,0,0,1-15.15,0,15.47,15.47,0,0,1-9.77-9.05A19.63,19.63,0,0,1,199.43,31M232,31a21.66,21.66,0,0,0-1.06-7.17,13.49,13.49,0,0,0-2.92-5,11.73,11.73,0,0,0-4.4-2.93,16.27,16.27,0,0,0-10.9,0,11.81,11.81,0,0,0-4.4,2.93,13.63,13.63,0,0,0-2.92,5,21.94,21.94,0,0,0-1,7.17,22,22,0,0,0,1,7.18,13.71,13.71,0,0,0,2.92,5,11.79,11.79,0,0,0,4.4,2.92,16.11,16.11,0,0,0,10.9,0,11.71,11.71,0,0,0,4.4-2.92,13.57,13.57,0,0,0,2.92-5A21.69,21.69,0,0,0,232,31" transform="translate(-4.08 -3.02)"/><path class="cls-4" d="M278.37,30q0-7.09-.05-10.95c0-2.56-.12-4.33-.25-5.29l1.05.17a6.63,6.63,0,0,0,1,.08,5.71,5.71,0,0,0,1.5-.25q-.15,1.74-.3,4.17c-.1,1.62-.19,3.35-.25,5.2s-.14,3.75-.2,5.7-.12,3.84-.15,5.67a18.19,18.19,0,0,1-1,6,12.52,12.52,0,0,1-2.77,4.5,11.57,11.57,0,0,1-4.43,2.8,17.69,17.69,0,0,1-6,.95q-7.5,0-10.9-3.4t-3.4-10.75c0-1.56,0-3,.13-4.17s.12-2.46.12-3.73c0-2.79,0-5.28-.1-7.44s-.13-4-.2-5.5c.4.06.83.12,1.3.17a12.39,12.39,0,0,0,1.3.08,7.62,7.62,0,0,0,1.08-.08l1.07-.17c-.07.73-.13,1.69-.2,2.87s-.13,2.53-.2,4-.12,3.12-.15,4.85-.05,3.54-.05,5.4c0,1.14,0,2.31.05,3.53a24.12,24.12,0,0,0,.35,3.55,14.78,14.78,0,0,0,1,3.3A8.09,8.09,0,0,0,259.57,44a8.69,8.69,0,0,0,3.15,1.84,13.9,13.9,0,0,0,4.7.68,11.66,11.66,0,0,0,4.62-.8,8.76,8.76,0,0,0,3.08-2.1,9.55,9.55,0,0,0,1.87-3,16.78,16.78,0,0,0,1-3.55,28.76,28.76,0,0,0,.35-3.7c0-1.23.05-2.36.05-3.4" transform="translate(-4.08 -3.02)"/><path class="cls-4" d="M315.56,35.1q-6.49-7-13-13.88c0,.94-.06,2.19-.1,3.75s0,3.7,0,6.4c0,.7,0,1.57,0,2.6s0,2.12.05,3.25,0,2.29.07,3.45.07,2.25.11,3.25.06,1.88.1,2.63.06,1.25.09,1.52a13.43,13.43,0,0,0-1.75-.1,15.3,15.3,0,0,0-1.85.1,18.19,18.19,0,0,0,.23-1.85c.08-.9.16-2,.23-3.22s.14-2.61.22-4.08.15-2.93.2-4.4.09-2.9.12-4.3.06-2.65.06-3.75q0-4.8,0-8.25c0-2.29-.06-4-.13-5.15H301l6.52,7.08q3.47,3.78,6.9,7.45t6.5,6.95q3.08,3.27,5.37,5.57v-6.8c0-3.5,0-6.9-.08-10.22s-.15-6.44-.32-9.37a7.57,7.57,0,0,0,1.7.25,7.4,7.4,0,0,0,1.6-.25c-.07.73-.14,1.83-.22,3.3s-.17,3-.25,4.69-.16,3.3-.23,4.9-.1,2.89-.1,3.85v3c0,1.14,0,2.32,0,3.55s0,2.48.06,3.73,0,2.41.05,3.49,0,2,0,2.83v1.65h-.7q-5.74-6.64-12.25-13.62" transform="translate(-4.08 -3.02)"/><path class="cls-4" d="M353.81,16.33c-.87,0-1.78,0-2.73,0s-1.9,0-2.85.1l-2.75.17c-.88.07-1.67.16-2.37.25a5.85,5.85,0,0,0,.25-1.6,6.64,6.64,0,0,0-.25-1.54l6.45.17q3.15.07,6.45.08t6.45-.08l6.44-.17a7.31,7.31,0,0,0-.25,1.6,6.11,6.11,0,0,0,.25,1.54c-.69-.09-1.49-.18-2.37-.25l-2.75-.17c-.95-.05-1.9-.08-2.85-.1s-1.86,0-2.72,0q-.15,5.15-.15,10.34v8.6q0,3.3.12,6.5c.08,2.13.18,4.24.28,6.3-.77-.07-1.59-.1-2.45-.1s-1.69,0-2.45.1c.1-2.06.19-4.17.27-6.3s.13-4.3.13-6.5v-8.6q0-5.19-.15-10.34" transform="translate(-4.08 -3.02)"/><path class="cls-4" d="M159.51,84.22Q163,90.91,166.89,98c.33-.64.81-1.54,1.45-2.73s1.36-2.54,2.2-4.07,1.72-3.19,2.67-5l2.9-5.42c1-1.83,2-3.63,2.92-5.4l2.7-5h.65q.56,4.8,1,9.27c.31,3,.64,5.92,1,8.8s.67,5.74,1,8.55.7,5.61,1.1,8.37a7.92,7.92,0,0,0-1.17-.1H183a7.81,7.81,0,0,0-1.17.1q-.56-6.64-1.1-12.89t-1.35-12.75h-.11q-3.45,6.3-6.77,12.52t-6.32,13h-.45q-3-6.28-6.28-12.62t-6.57-12.92h-.1c-.24,2.06-.49,4.31-.78,6.72s-.54,4.8-.77,7.15-.43,4.57-.6,6.65-.25,3.79-.25,5.12a15.36,15.36,0,0,0-3.5,0c.43-2.7.88-5.54,1.35-8.54s.91-6,1.35-9.05.83-6,1.2-9,.68-5.75.95-8.42h.85q3.45,7.1,7,13.8" transform="translate(-4.08 -3.02)"/><path class="cls-4" d="M229.82,105.41a10.29,10.29,0,0,0-1.32-.1h-2.65a10.29,10.29,0,0,0-1.32.1c-.24-.76-.55-1.69-.95-2.77s-.85-2.22-1.33-3.4l-1.47-3.6c-.5-1.22-1-2.37-1.4-3.47l-3.25-.08c-1.1,0-2.2,0-3.3,0s-2.05,0-3.05,0l-3.05.08c-1.07,2.6-2,5.07-2.9,7.42s-1.52,4.29-2,5.82a17.16,17.16,0,0,0-3.7,0q4-8.75,7.9-17.39t7.75-17.6h.95c.8,1.93,1.66,4,2.6,6.27s1.88,4.53,2.85,6.83,1.93,4.58,2.9,6.85,1.87,4.37,2.72,6.32,1.62,3.69,2.3,5.23,1.24,2.7,1.67,3.49M207.68,89.87c.86,0,1.77,0,2.7,0s1.83,0,2.7,0,1.87,0,2.8,0,1.86,0,2.8-.07l-5.55-12.7Z" transform="translate(-4.08 -3.02)"/><path class="cls-4" d="M244,84q0-3.3-.12-6.48c-.08-2.11-.18-4.27-.28-6.47l3.78.18c1.25,0,2.5.07,3.77.07s2.53,0,3.78-.13,2.5-.12,3.77-.12a21.84,21.84,0,0,1,7.53,1.15,13.21,13.21,0,0,1,5.12,3.27,12.83,12.83,0,0,1,2.92,5.2,23.91,23.91,0,0,1,.93,6.93A18.44,18.44,0,0,1,273.49,96a16.15,16.15,0,0,1-4.4,5.53,16.43,16.43,0,0,1-5.9,3,23.59,23.59,0,0,1-6.17.87c-1.13,0-2.25,0-3.35,0s-2.21-.06-3.35-.06H247c-1.1,0-2.21,0-3.35.1.1-2.06.2-4.16.28-6.29s.12-4.3.12-6.5Zm4.1,8.6q0,5.4.3,10.59a17.49,17.49,0,0,0,2.85.38c1.2.08,2.43.12,3.7.12a23.94,23.94,0,0,0,5.5-.64,12,12,0,0,0,4.92-2.45,13,13,0,0,0,3.55-4.93,20.11,20.11,0,0,0,1.38-8.07,20.37,20.37,0,0,0-1.07-7.15,10.86,10.86,0,0,0-3-4.43,10.39,10.39,0,0,0-4.47-2.24,24.15,24.15,0,0,0-5.7-.63q-2.25,0-4.2.15c-1.3.1-2.46.22-3.5.35-.1,1.6-.17,3.27-.22,5s-.08,3.53-.08,5.33Z" transform="translate(-4.08 -3.02)"/><path class="cls-4" d="M288.57,88.32a19.63,19.63,0,0,1,1.37-7.58,15.86,15.86,0,0,1,3.85-5.62,16.65,16.65,0,0,1,5.93-3.5,24.48,24.48,0,0,1,15.14,0,16.65,16.65,0,0,1,5.93,3.5,15.86,15.86,0,0,1,3.85,5.62,21.63,21.63,0,0,1,0,15.15,15.45,15.45,0,0,1-9.78,9,26.14,26.14,0,0,1-15.14,0,15.45,15.45,0,0,1-9.78-9,19.61,19.61,0,0,1-1.37-7.57m32.54,0a22,22,0,0,0-1.05-7.18,13.71,13.71,0,0,0-2.92-5,11.71,11.71,0,0,0-4.4-2.92,15.54,15.54,0,0,0-5.48-1,15.33,15.33,0,0,0-5.42,1,11.71,11.71,0,0,0-4.4,2.92,13.71,13.71,0,0,0-2.92,5,22,22,0,0,0-1,7.18,21.9,21.9,0,0,0,1,7.17,13.63,13.63,0,0,0,2.92,5,11.73,11.73,0,0,0,4.4,2.93,15.32,15.32,0,0,0,5.42.94,15.54,15.54,0,0,0,5.48-.94,11.73,11.73,0,0,0,4.4-2.93,13.63,13.63,0,0,0,2.92-5,21.9,21.9,0,0,0,1.05-7.17" transform="translate(-4.08 -3.02)"/><path class="cls-4" d="M357.36,92.44q-6.51-7-13-13.87c0,.93-.07,2.18-.1,3.75s-.05,3.7-.05,6.4c0,.7,0,1.56,0,2.6s0,2.11,0,3.25,0,2.28.08,3.45.06,2.25.1,3.24.06,1.88.1,2.63.07,1.26.1,1.52a15.6,15.6,0,0,0-1.75-.1,17.36,17.36,0,0,0-1.85.1c.06-.33.14-1,.22-1.85s.16-2,.23-3.22.14-2.61.22-4.08.15-2.93.2-4.39.09-2.9.13-4.3.05-2.65.05-3.75q0-4.8,0-8.25c0-2.3-.06-4-.12-5.15h.8l6.52,7.07q3.48,3.78,6.9,7.45t6.5,7q3.07,3.27,5.37,5.57V90.67q0-5.25-.07-10.23c-.05-3.31-.16-6.44-.33-9.37a7.1,7.1,0,0,0,1.7.25,6.75,6.75,0,0,0,1.6-.25c-.06.73-.14,1.83-.22,3.3s-.17,3-.25,4.7-.16,3.3-.23,4.9-.1,2.88-.1,3.85v3c0,1.13,0,2.31,0,3.55s0,2.47.05,3.72,0,2.42,0,3.5,0,2,0,2.83v1.64h-.7q-5.75-6.65-12.24-13.62" transform="translate(-4.08 -3.02)"/><path class="cls-4" d="M404.7,92.44q-6.49-7-13-13.87c0,.93-.07,2.18-.1,3.75s-.05,3.7-.05,6.4c0,.7,0,1.56,0,2.6s0,2.11,0,3.25.05,2.28.08,3.45.07,2.25.1,3.24.07,1.88.1,2.63.07,1.26.1,1.52a15.6,15.6,0,0,0-1.75-.1,17.5,17.5,0,0,0-1.85.1c.07-.33.14-1,.23-1.85s.16-2,.22-3.22.14-2.61.23-4.08.15-2.93.2-4.39.09-2.9.12-4.3.05-2.65.05-3.75q0-4.8,0-8.25c0-2.3-.06-4-.13-5.15h.8l6.52,7.07q3.48,3.78,6.9,7.45t6.5,7q3.08,3.27,5.38,5.57V90.67q0-5.25-.08-10.23c-.05-3.31-.16-6.44-.32-9.37a7,7,0,0,0,1.7.25,6.82,6.82,0,0,0,1.6-.25c-.07.73-.15,1.83-.23,3.3s-.17,3-.25,4.7-.16,3.3-.22,4.9-.1,2.88-.1,3.85v3c0,1.13,0,2.31,0,3.55s0,2.47.05,3.72,0,2.42.05,3.5,0,2,0,2.83v1.64H417q-5.76-6.65-12.25-13.62" transform="translate(-4.08 -3.02)"/><path class="cls-4" d="M462.84,105.41a10.56,10.56,0,0,0-1.32-.1h-2.65a10.57,10.57,0,0,0-1.33.1c-.23-.76-.55-1.69-1-2.77s-.84-2.22-1.32-3.4-1-2.38-1.48-3.6-1-2.37-1.4-3.47l-3.25-.08c-1.1,0-2.2,0-3.3,0s-2,0-3,0l-3.05.08q-1.59,3.9-2.9,7.42t-1.95,5.82a17.07,17.07,0,0,0-3.69,0q4.05-8.75,7.89-17.39t7.75-17.6h1l2.6,6.27q1.39,3.38,2.85,6.83l2.9,6.85c1,2.27,1.88,4.37,2.73,6.32s1.61,3.69,2.3,5.23,1.24,2.7,1.67,3.49M440.69,89.87c.87,0,1.77,0,2.7,0s1.83,0,2.7,0,1.87,0,2.8,0,1.87,0,2.8-.07l-5.55-12.7Z" transform="translate(-4.08 -3.02)"/><path class="cls-4" d="M117.11,29.48H106.4a1.12,1.12,0,0,0-1.12,1.12v8.69a.33.33,0,0,1-.33.33h-3.36a.33.33,0,0,1-.33-.33V21.11A1.12,1.12,0,0,0,100.14,20H82a.32.32,0,0,1-.32-.33V14.07a.32.32,0,0,1,.32-.33h8.7a1.12,1.12,0,0,0,1.12-1.12V4.14A1.12,1.12,0,0,0,90.65,3h-59a1.13,1.13,0,0,0-1.13,1.12v8.48a1.13,1.13,0,0,0,1.13,1.12h8.69a.33.33,0,0,1,.33.33v5.59a.33.33,0,0,1-.33.33H22.17a1.12,1.12,0,0,0-1.12,1.12V39.29a.33.33,0,0,1-.33.33H17.36a.33.33,0,0,1-.33-.33V30.6a1.12,1.12,0,0,0-1.12-1.12H5.2A1.12,1.12,0,0,0,4.08,30.6V87.36A1.12,1.12,0,0,0,5.2,88.48H15.91A1.12,1.12,0,0,0,17,87.36v-8.7a.32.32,0,0,1,.33-.32h3.36a.32.32,0,0,1,.33.32V96.85A1.12,1.12,0,0,0,22.17,98H40.35a.33.33,0,0,1,.33.33v5.59a.33.33,0,0,1-.33.33H31.66a1.13,1.13,0,0,0-1.13,1.12v8.48a1.13,1.13,0,0,0,1.13,1.12h59a1.12,1.12,0,0,0,1.12-1.12v-8.48a1.12,1.12,0,0,0-1.12-1.12H82a.32.32,0,0,1-.32-.33V98.3A.32.32,0,0,1,82,98h18.19a1.12,1.12,0,0,0,1.12-1.12V78.66a.32.32,0,0,1,.33-.32H105a.32.32,0,0,1,.33.32v8.7a1.12,1.12,0,0,0,1.12,1.12h10.71a1.12,1.12,0,0,0,1.12-1.12V30.6a1.12,1.12,0,0,0-1.12-1.12m-2.7,57.09a.32.32,0,0,1-.33.32h-4.66a.32.32,0,0,1-.32-.32v-8.7A1.12,1.12,0,0,0,108,76.75H98.56a1.12,1.12,0,0,0-1.12,1.12V96.05a.33.33,0,0,1-.33.33H78.93a1.12,1.12,0,0,0-1.12,1.12v7.19a1.12,1.12,0,0,0,1.12,1.12h8.69a.32.32,0,0,1,.33.32V113a.33.33,0,0,1-.33.33H34.68a.32.32,0,0,1-.32-.33v-6.89a.32.32,0,0,1,.32-.32h8.7a1.12,1.12,0,0,0,1.12-1.12V97.5a1.12,1.12,0,0,0-1.12-1.12H25.19a.32.32,0,0,1-.32-.33V77.87a1.12,1.12,0,0,0-1.12-1.12H14.33a1.12,1.12,0,0,0-1.12,1.12v8.7a.32.32,0,0,1-.33.32H8.23a.32.32,0,0,1-.33-.32V31.39a.32.32,0,0,1,.33-.32h4.65a.32.32,0,0,1,.33.32v8.7a1.12,1.12,0,0,0,1.12,1.12h9.42a1.12,1.12,0,0,0,1.12-1.12V21.9a.32.32,0,0,1,.32-.32H43.38a1.12,1.12,0,0,0,1.12-1.12V13.27a1.12,1.12,0,0,0-1.12-1.12h-8.7a.32.32,0,0,1-.32-.33V4.94a.32.32,0,0,1,.32-.33H87.62a.33.33,0,0,1,.33.33v6.88a.33.33,0,0,1-.33.33H78.93a1.12,1.12,0,0,0-1.12,1.12v7.19a1.12,1.12,0,0,0,1.12,1.12H97.11a.32.32,0,0,1,.33.32V40.09a1.12,1.12,0,0,0,1.12,1.12H108a1.12,1.12,0,0,0,1.12-1.12v-8.7a.32.32,0,0,1,.32-.32h4.66a.32.32,0,0,1,.33.32V86.57Z" transform="translate(-4.08 -3.02)"/><path class="cls-4" d="M61.4,26.9A32.27,32.27,0,1,0,93.67,59.16,32.29,32.29,0,0,0,61.4,26.9m0,3.29A29,29,0,0,1,90.28,57l-.68.06A6.71,6.71,0,0,1,87.19,57L87,56.88A3.51,3.51,0,0,0,86,56.12a6.72,6.72,0,0,0-1.65-.43,4.65,4.65,0,0,1-.81-.19c-.32-.12-.41-.24-.76-.82a7.84,7.84,0,0,0-.74-1.1,5,5,0,0,0-4.72-1.78l-1.16.14a7.58,7.58,0,0,1-3.72-.11l-.29-.11A8.83,8.83,0,0,1,69,50.07,7.1,7.1,0,0,0,61.86,49c-2.31.93-3.52,2.94-4.59,4.72a20.77,20.77,0,0,1-1.2,1.83c-.31.41-1.71,2.25-3.34,4.37-2.34,3.07-5.55,7.27-5.83,7.62a2.65,2.65,0,0,1-1.24.88h0a6.09,6.09,0,0,1-.59.16c-.88-.87-3.55-5.79-5.59-10a.08.08,0,0,0,0,0A2.69,2.69,0,0,0,37.07,57H32.53A29,29,0,0,1,61.4,30.19m0,57.94A29,29,0,0,1,32.46,60.26h4.1c1.85,3.78,5.08,10,6.62,11.07a3.07,3.07,0,0,0,1.77.55,5.36,5.36,0,0,0,1.6-.3h.06a6,6,0,0,0,2.85-2c.29-.36,2.63-3.42,5.89-7.7l3.33-4.35a20.89,20.89,0,0,0,1.41-2.15c.88-1.46,1.72-2.84,3-3.36a3.75,3.75,0,0,1,3.62.45A11.82,11.82,0,0,0,71,54.82l.28.1a10.43,10.43,0,0,0,5.27.29c.35,0,.71-.09,1.07-.12,1.07-.11,1.49.13,1.83.56a5.3,5.3,0,0,1,.48.72,4.61,4.61,0,0,0,2.38,2.2,7.53,7.53,0,0,0,1.47.37,4.54,4.54,0,0,1,.83.18l.14.14a4.05,4.05,0,0,0,.85.65,7.83,7.83,0,0,0,4.27.44l.46,0A29,29,0,0,1,61.4,88.13" transform="translate(-4.08 -3.02)"/><path class="cls-4" d="M72,38.81a3.69,3.69,0,0,0,5.68,4.45.73.73,0,0,1,1.1.9c-2.49,4.18-9,2.3-9.33-2.48A4.53,4.53,0,0,1,70.85,38a.73.73,0,0,1,1,.06.73.73,0,0,1,.11.8" transform="translate(-4.08 -3.02)"/><g class="cls-5"><g class="cls-6"><rect class="cls-7" x="28.39" y="48.77" width="57.88" height="36.34"/></g></g><g class="cls-3"><g class="cls-8"><g class="cls-9"><path class="cls-4" d="M114.17,86.56a.33.33,0,0,1-.33.33h-4.66a.32.32,0,0,1-.32-.33V77.87a1.13,1.13,0,0,0-1.13-1.12H98.32a1.12,1.12,0,0,0-1.12,1.12V96.05a.33.33,0,0,1-.33.33H78.69a1.13,1.13,0,0,0-1.13,1.12v7.19a1.13,1.13,0,0,0,1.13,1.12h8.69a.32.32,0,0,1,.33.32V113a.33.33,0,0,1-.33.33H34.44a.32.32,0,0,1-.32-.33v-6.89a.32.32,0,0,1,.32-.32h8.7a1.12,1.12,0,0,0,1.12-1.12V97.5a1.12,1.12,0,0,0-1.12-1.12H25a.32.32,0,0,1-.32-.33V77.87a1.13,1.13,0,0,0-1.13-1.12H14.09A1.12,1.12,0,0,0,13,77.87v8.69a.33.33,0,0,1-.33.33H8a.32.32,0,0,1-.32-.33V31.39A.32.32,0,0,1,8,31.07h4.66a.32.32,0,0,1,.33.32v8.7a1.12,1.12,0,0,0,1.12,1.12H23.5a1.13,1.13,0,0,0,1.13-1.12V21.9a.32.32,0,0,1,.32-.32H43.14a1.12,1.12,0,0,0,1.12-1.12V13.27a1.12,1.12,0,0,0-1.12-1.12h-8.7a.32.32,0,0,1-.32-.33V4.94a.32.32,0,0,1,.32-.33H87.38a.33.33,0,0,1,.33.33v6.88a.33.33,0,0,1-.33.33H78.69a1.13,1.13,0,0,0-1.13,1.12v7.19a1.13,1.13,0,0,0,1.13,1.12H96.87a.32.32,0,0,1,.33.32V40.09a1.12,1.12,0,0,0,1.12,1.12h9.41a1.13,1.13,0,0,0,1.13-1.12v-8.7a.32.32,0,0,1,.32-.32h4.66a.32.32,0,0,1,.33.32V86.56Zm-53-59.66A32.27,32.27,0,1,0,93.42,59.16,32.29,32.29,0,0,0,61.16,26.9" transform="translate(-4.08 -3.02)"/></g></g></g></g></g></g></svg>